<svg xmlns="http://www.w3.org/2000/svg" width="640pt" height="640pt" viewBox="0 0 640 640">
    <g fill="#eeeff4">
        <path
            id="thumbnail-bg0"
            d="M0 0h640v90.2c-2.5-.2-2.5 2.8 0 2.6v18.3c-22.5 1.6-45-1-67.5-.6-13 0-26.2.5-39.2-1-2.9-1-4.2-4.2-6.3-6.3-11.1-12.5-25.5-21.5-39.2-31-8.5-6.4-19-9.3-27.5-15.5-5.9-3.8-11.4-8.9-18.4-10.6-4.8-.9-9.8-.4-14.7-.5-2-3.4-3.6-7.4-7-9.9-5.5-5-13.3-6.1-20-9.1a47.8 47.8 0 0 0-24.1-4.6c-4.3 1-6.8 5-9.5 8.2-9.3-.9-13.3-10.8-22-12.7 3.5 3.8 8.4 6.4 11 11A36 36 0 0 1 349 55c-12.6-7.4-25-18-40.6-17.2 8.8 3.5 18.3 5.3 26.4 10.5 7 4.6 16.4 8.5 19 17.3.6 6.3.6 12.8 1.9 19C353 85.7 350 88 347 86a35 35 0 0 1-10.7-9.3c-3-9-2-20-9.6-27.2-8.7-3.2-18.2-4-27.4-4.7-5.4.3-8.4 5.6-11.2 9.5a17 17 0 0 0-3.1 8.6l-4.4-6.2c.9 5.2 4.7 9.7 5 15-3 8-12.6 10.7-20.4 11.1-.5-8 1.5-16.8-1.4-24.6-4-8.5-14.5-12.3-23.4-10.8-4.6-.4-6.4 4-8.5 7 2.7-.1 5.3 0 8-.3l2 1.9c-1.5 2.8-3.4 5.5-4.7 8.5a59.7 59.7 0 0 1-9.7-8.2c-1.2 2.6-2.5 5-4 7.4-1.4-7.8 6.5-12.5 10.2-18.3-4.7 3.5-9 7.5-12.4 12.4l-8.2.2c2.1-4.7 4.9-9.8 9.9-11.9 5-1.8 10.4-1.2 15.4-2.6 8.4-2.4 17.2-2 25.8-2l-11-3a19 19 0 0 1 9.8-8.3 120 120 0 0 1 23.5-5.5c4-.5 7.2 2.3 10 4.7 1.4-4 2.6-9.2 7.5-10.2 7.6-1.5 15.6-1.1 23.4-1.7-7-1.4-14.5-4.6-21.5-1.4-4.7.6-7.7 4.6-12 6.1-15.2.5-32.4 2.4-42.9 14.9-9.6 4.9-21.4 3-31 8-5 2.4-6.9 7.9-9.3 12.5-8.9.8-17.8 1.7-26.4 4.1 8.7.9 17.3-1.3 25.9-2 4.8-.6 8.8 2.8 13 4.5-1.6 6 .4 12 .9 18.1l-3.6.2-.1 6.1c2.5-3 4.8-6.3 7-9.5l-3 8.3 4 1c-4.7 1.4-9.4.5-13.4-2.3a275 275 0 0 0-2 10.3l6.7-3.9a49.5 49.5 0 0 1-7.5 6l1 3.4 3 .2.8-5 5.2 3.4c-7 4.5-15.5 6-22.5 10.6a27.6 27.6 0 0 0-7.7-7c-2.3-1.3-1.3-4.4-1-6.5.2-3.6 3.9-5.7 6.7-7.4-.2-3.6.5-7.2-.2-10.8-1-2.4-4-2.2-6.2-2.7l-.3-6.2c-2.3.3-4.7.5-7 .6 4.7-.9 9.8-2.3 14.3 0 1.4 1.3 2.1 3 3 4.7L205 72a282 282 0 0 0-2 6.8l4.8 3.6-1.6-6.6c2 2.6 4 5.4 6.8 7.3-.8-7.7-6.1-15.4-13.8-17.3-5-.7-11.2-1.3-15.4 2.2-2 2.5-2.6 5.8-3.4 8.8l7.5-.5-.2 4.5c-3.9-.6-7.2-2.5-9.7-5.4l-4.3 8c4.4-1 9-2 13.3-.2l4.8-3.3c-1.4 3-3.7 5.3-5.8 7.8-.6 2.6.1 5.5 0 8.2a87.2 87.2 0 0 1-11-4.3c1.7 2.3 2.6 5.4 5 7.1 3.1.4 6.3-.8 9.4-1.2l-3 4.5-4.2-2.7 2.4 6.7c-4-3.7-8.8-7-12.3-11.3-2-5.5-.9-11.5-1.4-17.2a30.2 30.2 0 0 0 1.4 21.7l-6.6.2c4.9 1.4 10.7 1.6 14.3 5.7 2.8 3.2 2 7.7 2.8 11.6l2 1.3c.5-5 .9-10 2-14.8 4.3 3.8 9.3 6.9 13.5 10.9l-7.5-2 1.9 2.8a22 22 0 0 0-6.4 3.1l3.8-7.8-5-2.2c4.6 8.5-6.7 18.2-14.8 16.8-7-4.3-11-12-18.5-15.6-3.7-2-8.4-2.8-12.6-1.8-3.5 1-4.7 4.8-6 7.9a71.2 71.2 0 0 0-4.9 20.1c-.3 2.8 2 4.8 3.5 6.9-.8-5.8-.7-11.5-.2-17.2l3.7 5.5c-.9-4-1-8-2-12 3 3.5 4.9 7.5 6.6 11.7-.4-4.4-.8-8.8-.5-13.2-1.2 1-2.4 2-3.6 2.8.7-2.3.1-8.3 4-7.3 7.3 1.8 16.2 1.7 21.4 8.2 3.5 4.5 8.2 7.7 13.7 9.3-.6 1.7-.9 3.5-1.3 5.3-3.8-4.9-8.7-10-15.5-9l.2 3.6 3 .4-.8-3 2-.2.7 6.9 2.2-.3 1-3.6c1.7 2 3.3 4 4.8 6.2a30.6 30.6 0 0 1-7.2 5.6l2.9-7.3c-2.4 2-5 4.3-5.6 7.5l-2.9-2.7c-.3 3.7-.7 8.3-5.8 8.8l3.9-12-3.6-.1c-1.2 2.8-.2 8-3.7 9.6-2.6.6-5.3.5-7.9.5l-.3 3.1-2.2.3-2.2-9.3c-3.5 4.2-.8 9.4 1.4 13.5 4.3-4.3 10.2-6 16.2-5.2l-13.6 5.4c1.6 1.4 3.3 2.8 5.1 4 2.7-1.4 5.3-3 8.1-4-1.4 3.6-4.1 6.5-8.3 6.7 1 1.1 2 2.2 2.8 3.3l-6.3 3.4-5-7.4-2 9.6 2.7 3.3 4.2-2-3.7 6c-2.7-3.3-5.5-6.6-8.4-9.6 2.4 5.7 6.3 11.3 4.5 17.8-2-2.5-4-5-6.4-7.3-1 4.3 1.8 6.8 4.6 8.8l-2.3 3.6v-4.8c-2.6 4.9-5.1 9.7-6.9 14.8 0-5.2-2.3-10-3.4-15 .8-4.4 2.6-8.6 3.5-13a21.2 21.2 0 0 0-5 12c-1.1-3.7-2.7-7.2-3.7-10.9l3.3 1.4c-.8-3.5-2.2-7-2-10.7 1.5-1.7 3.4-3 5.1-4.3-1.3 2-2.7 4-4.2 5.9l6.5-.5-1.1-3.2 5 1.5c-.1-2-.4-4.1-.2-6.2 2-3.5 5-6.3 6.4-10-1.1-4.8-8.1-5.6-8.3-10.8a45.8 45.8 0 0 1 8.6-28.6c3.8-3.4 8.7-5.3 13.3-7.6-2.5-4.3-2.6-11.8-8.2-13-6 1.7-7.6 8.9-11.2 13.4-3.2-2.8-5.9-6-8.8-9.1a41.8 41.8 0 0 1-17.6 13.4l-.6-8.4 3 1V87.3a61.6 61.6 0 0 1-11.1 6.2l5.9-.2c-.2 4.2-1 8.3-2 12.3l8.9 1.9.2 2.4-6-1.5 1.3 3.5 5 .6-2.1 4.5-7.3-2.6-.5-7.6c-2.4 0-5-.2-7.4.4-1.6 1.3-2.7 3.1-4 4.7l4.1.6-1.6 4c4 .2 8.2.4 12.3 1-2.8 4.9-2.5 10.4-.8 15.6-6.3-2.2-13-4.1-18-8.8-3.7-3.7-7.8-7-11.9-10.1A127 127 0 0 1 74 97.3l-4.5 2.3c-5-8-5.1-18.2-11.3-25.7h-3.2c-1.2 3.2-2.1 6.5-3.2 9.7-6.2 3.3-10 9.3-13.5 15-3-2.9-5.3-6.4-7-10.2-2.7-5.1-10.4-7.1-10.3-13.6-.2-2.4-.5-4.7-.9-7l-7.5 7.3 4.5-.5c1.7 6.3 5.7 11.9 12.6 13.2-4.3 3-9.6 3.7-14.6 4.3a19 19 0 0 0 9.1 6.9l-2.8-4.4c2.3-.3 4.7-.9 7-.6 2.6 1 4 3.5 5.6 5.4l-7-1c-.5 3.3-2 6.7-1.7 10.3 1.2 3.7 4 6.8 4.7 10.8-2.2 2.1-4.5 4-6.8 6-2.4-6.7-3.4-14.2-7.6-20.2-3.6-.7-7.2-1.4-11-1.8 2.2 11-3.1 22-1 33l-3.5-3v-32.8c2.6.5 5.2 1 7.7 1.7l-2.6-4.6 9.3-2.4-2.9-10.6A50.4 50.4 0 0 1 0 94.1v-6.2c3.2 0 3.4-4.7 0-2.4V0m329 15.8.2 2.8 5.4-2.2-5.6-.6m-33.2 18.3L292 41c5.1-1 10.2-1.8 15.3-2.6l-10.8-2.2-.7-2.1m-31.4 8.2c4 2.2 8.5 3.3 13 3.5-4-2-8.4-3.2-13-3.5m20.1 5a46 46 0 0 0 4.8-4.8 6 6 0 0 0-4.8 4.8m-6.2-.3c1.3 3.2 3.5 6.1 4.3 9.5.4-2.5.7-5.1 1.3-7.7-1.9-.5-3.7-1.2-5.6-1.8m-49.5 6.6c2 2.7 4 5.2 6.2 7.7l2.4-2.3c-2.8-1.8-5.6-3.7-8.6-5.4m7.8 2.6c-1 1.6 2 3 3 1.5 1-1.7-2-3-3-1.5m396.6 5-1.4 1.8 7.6-.3-6.2-1.5m-60.6 2.4c12-.8 24.3 3 36 0-11.8-2.8-24-1.2-36 0m-559.4-1-.1 4 6.5 1c-2.1-1.8-4.2-3.5-6.4-5m526.9 1-.1 3.1c11.8-1.2 23.6 1.4 35.5.8a172 172 0 0 0-35.4-3.9M171.7 77.2c3.2-3.7 6.5-7.5 7.6-12.5-3.3 3.7-6.7 7.6-7.6 12.5m403.7-9.7c7.4.7 14.8.4 22.2 0-7.4-.7-14.8-.4-22.2 0m35.6-.2c0 1.6 4 1.6 4 0-1-1-3-1-4 0m8 .4c4 3 9.3 1.6 13.6.2-4.5-.5-9-.6-13.6-.2M9 80.9c3.7-3.1 3.4-8.2 3.8-12.5A25.4 25.4 0 0 0 9 80.9m97.8-7a13 13 0 0 0 5.9 5.3 9.1 9.1 0 0 0-6-5.3m-84.2.8c1.6 2.5 4.3 3.9 7.2 4.3a30 30 0 0 0-7.2-4.3M600 78v1h8v-1h-8m-400.3 1c.4 1.7 1 3.3 1.5 5l4.2-.2-5.7-4.8M14.3 82.3c-1.5 1 .2 3.5 1.6 2.4 1.5-1-.2-3.5-1.6-2.4m85 .3L99 88h3.3l-3-5.4m111.1 1.3c-1.2.5-1.8 2.4-.8 3.4 1.7.6 2.7-3.2.8-3.5m-96 .8c-1.5 1 0 4 1.6 2.3 1.7-1 0-3.8-1.6-2.4m99-.1c-1 .5-1.7 2-1 2.9 2 1.1 3.5-3.7 1-3m353 .2c-4.3-.1-8.7.4-13 .8-2.3 1.9-3.6 6.3-.5 8 4.7 2.6 10.3.9 15.1-.3 4.7-1.2 3.4-9.4-1.5-8.5m66.6.9c-5.6 2.2-11.4.2-17-.5.4 3.3-.7 7.6 2.3 10 7.1 1.5 16.2-1 19.3-8.2 2-2.5-3.9-3.6-4.6-1.3m-526.7-.2c-1 1.3 1.3 2.8 2.2 1.4 1-1.3-1.3-2.8-2.2-1.4m67.6 6.2c1.4-2.3 2.8-4.6 4-7-2.2 1.6-5.1 3.2-4 7m27.7-3.2c2.7-.2 5.3-1.2 7.1-3.2-2.4.8-4.8 2-7.1 3.2m322.5 0c2.8 4.4 8.8 1.6 13 2.4-4-2.4-8.6-2.2-13-2.4m50 2c4.3 2 9.2 1.6 13.7.5-4.3-2.2-9.2-1.4-13.7-.4m-371 8.6c-1.7 3-4 5.9-3.5 9.4l2-3.1c2.3.1 4.7.5 7.1.7l1.2-4.2-4 3.6c1.7-3.7 3.6-7.2 5-11-2.4 1.9-5 3.6-7.8 4.6m-188-3.2c-.6 2-1 4-1.4 6 1.7-1.3 4-2.2 4.5-4.5-1-.6-2-1.1-3.1-1.5m77.2.6c1.3 1 2.4 2.1 3.4 3.4 0-1 .3-2.9.4-3.8l-3.8.4m437.9 4.8c-1.3.1-2.6 2.4-1 3 2 .7 3.6-3.3 1-3m-511.8 2.2a71 71 0 0 1 3.7 4.6l-3.8-.3c1.6 1.5 3 3.1 4.7 4.6V103l-4.6.4m59 11.7 7.7 7.3c0-1.6-.4-4.6-.5-6.1a52 52 0 0 0-7.2-1.2m69 1.1c2.2 1 4.3 1.7 6.5 2.3l-1.8 1c5.2.6 9.6 3.5 14.2 5.6-5.2-4.7-11.2-9.7-18.8-8.9m1.2 8.6 1.2 3.2 5.8-1 1.5-3.7a62 62 0 0 0-8.5 1.5m-11 11.5c-1 1.6 1.8 2.7 2.6 1.3 1-1.6-1.8-2.7-2.6-1.3m-6.6 21.6 3.4.7.2 2 1.9-5.8 2.5 5.6-1-9.6c-2.2 2.5-4.7 4.8-7 7.1m13 1.7c-1.2.8.2 3 1.4 2 1.2-.9-.2-2.9-1.4-2m.2 5.2c1 0 2.9.3 3.8.4l-.4-3.8c-1 1.3-2.1 2.4-3.4 3.3m-21.8 2.7c-.9 1.1 1 2.6 2 1.4.9-1.1-1-2.6-2-1.4m7.6 6c-1.3.4-1.9 2.8-.3 3.2 2.1.4 2.7-3.6.3-3.1m-5 12.4c2.3-1.9 3.5-4.7 4-7.6a16 16 0 0 0-4 7.6m4.9-2-2 5-3.4-1.6a295 295 0 0 0 2.5 3.8l3-1.3-.1-6Z" />
        <path
            id="thumbnail-bg1"
            d="M372.4 27.3c5.8-5.5 15-2.3 21.6-.2 9.2 4.3 21 5 27.8 13.3.5 5.6-2 10.6-3.1 15.9l4.2-3.5a199 199 0 0 0-.5 3.5c4.7-4.4 10-9.8 17.2-7.8 15.8 3.9 28 16.5 35.4 30.5 1 2.5 3.3 5 2.8 7.8-3.7 8.5-10.2 16.9-20.4 17.7-5.8 2-9.6-3.3-13.8-6-9.2-7.3-19.5-12.7-29.5-18.6.2-2.7.6-5.3.9-8l-5 6a251 251 0 0 1-4.7-2l4.4-8.3-6.4 6.9c-7-1.3-11.2-7.7-17.5-10.3-6.2-2.7-13-3.4-19.4-5-3.1-11 1-22.2 6-31.9M436 88c3.5-1.4 6.8-3.7 7.6-7.6-4 .8-6.2 4.1-7.6 7.6ZM358.3 39.7l4.4 9.3-3.1 2c0-3.8-.7-7.5-1.3-11.3ZM356 44.3c1.6 5 2.6 10.2 3.5 15.4-2.8-1.1-5.3-2.6-8-3.8l4-1.4c.1-3.4 0-6.8.5-10.2ZM245.1 49.1c1.4-.5 2.3 1.8.8 2.2-1.5.5-2.3-1.8-.8-2.2ZM302.5 49.3c1.3-.9 2.6 1.2 1.4 2-1.3.8-2.5-1.2-1.4-2ZM320.3 50.5c.8-1.1 2.8.1 2 1.4-.8 1.2-2.9-.1-2-1.4Z" />
        <path
            id="thumbnail-bg2"
            d="M237.2 51.3c4.3.7 8.7 1.3 13 0l2.1 1.3h-3.9a94 94 0 0 0 5.3 6.2l-2.8 2.2c.2 2.3-.2 4.5-.4 6.7l-2.7-6.6-2.7 3.4-1-7.6c2.2 1.1 4.3 2.3 6.5 3.2-1.5-7.2-10-8.6-16-6.8l2.6-2ZM313.3 50.9c1.5-1.2 3.6 1.5 1.6 2.4-1.6 1-3.6-1.4-1.6-2.4ZM253 55.2l3.5-2.6a111 111 0 0 1-1 5.5c-1-1-1.7-2-2.5-3ZM311.4 56.1c3-.7 6.1-1.4 9.3-1.9-1.5 1.4-3 2.8-4.8 3.7-1.5-.4-3-1.1-4.5-1.8ZM259.1 54.5c1.6 3.6-1.6 6-4.3 7.8 1.3-2.7 2.8-5.2 4.3-7.8ZM302.3 55.3c1.3-1 2.9 1.2 1.6 2.2-1.3 1-2.9-1.2-1.6-2.2ZM294.1 58.2l3-2.5 1 6.5-4-1.4v-2.6ZM259.3 60.6l3.8 2.5-2.5 3-1.4-5.4ZM363 63c12-2.7 24.6 2.5 33.2 10.8a212 212 0 0 1 16.5 22.8c4.8-6 12 1.5 16.1 5-4.7 1.7-9.7 2.7-14.3 4.7 7.2-.7 14.8-1.5 21.6 1.7a60.7 60.7 0 0 1 29.3 24.8c3.5 5.7-2.2 11.3-4.3 16.4 3.2-1.8 5.6-6.1 9.7-5.8 5.3 4.1 9 9.9 12.1 15.7-3.7.1-7.3-.9-10.7-2l-1.4 1.9c3.8 1.8 8 4.4 12.3 2.8 3.6 6.5 10.4 10.7 13.5 17.6 2 6.2 2.7 13 1 19.5 5.7 4.4 11.8 8.8 14.9 15.5 3.7 8.5 6.3 17.4 8.6 26.3l-2.4 2.2-8-.7c4.5 3 10.6 4.6 13.3 9.8 3 6 3.7 12.9 4.5 19.5 2 6-3.2 10.4-6.4 14.6l8.2-3.3c1.4 4.5 4 9.5.6 13.8a32 32 0 0 1 6.4 24.9 47.8 47.8 0 0 1-18.9-12.8c-.3-4.2 0-8.4-.7-12.6-1-3.8-4.5-6-6.4-9.3.1-7.4 2.8-14.7 2.2-22.2-.6-6.8-1.3-14.5-6.8-19.3l.6 5.7-3.7-.7 5.5 4.5c-3.6.1-8 1.1-10.3-2.5-3.8-3.4-3.8-9-3-13.6 2-8.9 2.9-18.3.7-27.2-2.2-5.7-8.8-7.4-14.4-7.6-1 2.6-2 5.1-2.7 7.7l-3.3-1.8 1.5 6.4c6.6 1.8 13.8 5.4 15.9 12.4 2.2 5.6-.1 11.3 0 17 3.4 10 13.4 16 17 26 1.1 4.8-1.5 9.4-1.6 14.2 1.2 4.4 4.5 7.9 6 12.1 1.2 4.2 1.2 8.6 2.6 12.7 3.2 4.4 8.5 7.3 10.4 12.5.4 6.7-7.1 9.9-11.2 13.6-6 5.5-13.2 10.8-16.5 18.4-.1 7.9 7.2 13 11.4 19-1.4 4.8-4.1 9.1-6.2 13.7 2.5 5.7 4.6 12 9.6 16.1 1.8 2.5 6.6 4 5.5 7.7-2.6 10.5-6 20.9-9.7 31.1-1.9 5.4-5.7 9.7-8.7 14.4-4.6 6.4-7.8 14-13.6 19.4-9.5 8.2-20.1 16.7-33.2 17.6 5.7-6.2 14.5-9 19.3-16-8 3.3-13.4 10.8-21.5 14.1a100 100 0 0 1-68.6 3.7 68 68 0 0 0 33.8-24.6c3.2-4.6 8-7.6 12.1-11a45 45 0 0 1-25.7 6.1c5.8-2.7 12.4-5 16-10.7-8 3-15 8.3-23.2 11 6.3 2.8 13.1 1.7 19.8 2-9 13.5-23.3 24.8-40.3 24.6l.2 2.3a101 101 0 0 1 21.3 7.7 141.2 141.2 0 0 1-52.1 20.2 477.3 477.3 0 0 1-70.4 9c-8.3-2.2-15.4-7.6-22.7-11.8-25.6-16.8-53.4-31.9-72.9-56.2a59.8 59.8 0 0 1-11.2-26.6c4.5-.3 9-.4 13.4-1-3.3-2-6.8-3.6-10.2-5.2l.1 4c-5.4-1.4-11.1-3-15.5-6.7-10.6-8.6-16.2-21.5-23.9-32.4.6 7 2.3 13.9 4.9 20.4l16.5 44.4c2.9 8.2 9.1 14.4 14.7 20.8A70.7 70.7 0 0 1 122 459c-5.1-6.5-10-13.1-15.4-19.5v3.8A84.8 84.8 0 0 1 88.1 403c-4.9-23.5-3.4-47.6-1.7-71.4-4.2 11.7-1.7 24.7-5.3 36.6-2.8 10-5.7 20-6.8 30.3-2.3 12.6-.3 25.4.2 38-8.2-18.3-7.6-39.2-4.8-58.7 2.3-17.5 8.5-34 13.7-50.9l3.1 3c6-33.4 13.9-67 28.4-97.9 10.2-23.2 21.1-46.7 38.1-65.9 10-10 17.3-22.6 29.4-30.2 1.8-1 3-2.6 4-4.2l4.5 5c-.8-2.4-1.8-4.7-2.7-7 2.4 1.5 4.4 3.4 6.8 5l.8-6 2.3 3.5a99 99 0 0 1 27.3-11.4c4.2-1.1 8.6-.2 11.8 2.8l-3 .8 1.7 2.5-3.4-.4c-2 2.7-4.5 5.1-6 8.2-3.8 9-11 16.2-13.7 25.7 14-18.5 29-37.6 49.7-48.8 9.4-2.5 19.3-2.4 28.9-3.3 2.6-.5 4.2 1.9 6 3.4l-3.5-.1c-10.2 13-16.4 28.5-24.7 42.8-11.8 18.6-19.1 39.5-26.9 60-5.3 10.1-10.5 20.3-15.4 30.6-4.1 8.6-3.9 18.6-7.8 27.2-5.8 2.6-12.6 2.7-18 6.5 6.6-.7 12.9-3 19.5-3.5-7.1 3.4-15.8 2.8-22.2 7.7 6.7-1.2 13.2-2.9 19.8-4-2 18.9-7.2 39-.1 57.4a70.4 70.4 0 0 1-29.2-48.5c4.2-1.4 8.4-3.6 9.8-8.1a43.2 43.2 0 0 0-10.7 5.3c-1.7-11.3-4.1-22.6-2.7-34 .2-10.3 3.3-20.2 3.5-30.4-5.4 14.2-5.2 29.5-6 44.4a983.2 983.2 0 0 1-9.8 60c-2.3 13.5-5.1 28 .6 40.9.2-7-1.2-13.8-1.3-20.6 2.2-13.6 6-27.4 14.3-38.6 10 12.9 20.5 26.6 35.6 33.7-2-5.7-5.4-11-5-17.3-.8-12.3 3.7-24 8.8-35h3a63.3 63.3 0 0 0 10.2 19c6.4 7.7 10.7 17.6 20.1 22.4-3.2-5-7.7-9-10.6-14.2a89.6 89.6 0 0 1-11.8-37.4 588 588 0 0 1 17.3 2.6c.5 4 1.1 8 2 12l1.1-10.8c3.5 1.2 6.9 2.8 10.5 3.5-1.5-3.3-5-4.5-7.9-6.1-2.8-2.2-2-6.2-2.7-9.4l-2.8 5c-5.8-1.2-11.7-2.5-17.5-4-1.4-14.2 2.5-28.3 3.5-42.4 3.3-12.4 8.4-24 12.8-36 8.2-23 20.8-44.2 35-64.1 6.4-7.8 14-14.8 22.2-20.7 3.8-3 9-3 13.6-3.3 10.2-.4 20.5-.3 30.5 2-3.5 3.4-7.2 6.5-10.6 10 5-2.7 10.2-5.6 16-6.6l-1.8 3.5a54.4 54.4 0 0 1 24.8-3.9c7.6 2 11.5 9.2 16.5 14.5 4.7 5.7 10.7 10 16 15 9.6 16.9 8.2 37.2 9.2 56 2.3-11 1.4-24 10.3-32.3 9.7 10 14.7 23 20.3 35.4 2.8 8.3 4.8 16.9 8.9 24.6-2-16.3-10.8-30.7-14.2-46.7 6.2 2.6 12.8 5 17.4 10 5 6.8 6.6 15.4 9 23.3l1.3-10c-6.6-4.8-6.4-13.6-7-21-.2-3.8.4-8.2-1.8-11.7-2-1.3-4.4-.9-6.6-1.2-.2-5.2 3.7-7.9 8-9.1l-7 .3-4.5 13.6c-2.4-.7-4.8-1.4-7.1-2.5-3.6-2.5-2.8-7.7-3.4-11.4 0-15.8-5.7-31.9-16.7-43.4-3.3-3.7-9-3.9-13.4-2.3-3 4.6-2.8 11.1-7.4 14.7-4.4.2-7.5-3.8-11-5.9-1.6-9.5 1-19.3-.3-28.8a43 43 0 0 0-19.9-22.6c-5.8-2-13.1-4-18.3.6-2 3-3.2 6.6-5.4 9.6-1-5.7 1.1-13 7.2-14.8m48.4 52.7c.6-2.8 1.1-5.5 1.5-8.3-2 2.4-3.4 5.4-1.5 8.3m-102.9 43.9a69.1 69.1 0 0 0-6.8 39.2c2.2-9.6 2-19.7 5-29a129.4 129.4 0 0 1 25.4-45.1c-12 8-18.4 21.9-23.6 34.9m26.1-20.4c3.5-4 6.4-8.3 9.3-12.7a21.1 21.1 0 0 0-9.3 12.7m-152.8-1.4 1.6 2.6c.9-1.3 2-2.4 3.2-3.4l-4.8.8m-11 11.4c4-2.6 7.4-5.9 10.6-9.4a25.6 25.6 0 0 0-10.7 9.4M323 169.4c2.4-6.2 4.7-12.4 5.9-18.9-4 5.5-5.1 12.3-5.9 18.9m-124.7 18.8c-4 10-8.4 20.3-9.3 31.2 5-11.2 7.3-23.5 13-34.3 2.9-6.1 6.4-12 8.2-18.5-5.7 6.1-8.1 14.3-11.9 21.6M319 204c-.3 8.8 2.6 17 4.6 25.4a95.7 95.7 0 0 0 31.5 49.4c1.8 1 3.8 1.6 5.7 2.2l1-1.5c-12-6-20.4-16.8-27.4-27.8-5-9.5-8-20-10.8-30.3-4.2-16.8-2-34-1.2-51-3.7 10.8-3.1 22.4-3.4 33.6m159-6.1c2.8-1.7 5.3-3.7 8.1-5.3-4.1 0-8 .9-8.1 5.3M332 226.5a121 121 0 0 0 5.8-25c-4.4 7.5-6 16.3-5.8 25m84 21.1 1.6 1.5a151 151 0 0 0 5.8-42.5c-3 13.6-5 27.3-7.5 41m-113-39.9c.5 9.9 4.5 19 8.4 27.8 7 15.4 17.3 30 32.7 37.9-5-5.4-11-10-16.1-15.4a107.7 107.7 0 0 1-16-26c-3.7-7.8-5.3-16.5-9-24.3m163.6 25.9c.2 5.8.8 11.7.6 17.5-5.1-1.5-10.1-3.9-12-9.2-9.6-.8-14.2 8.8-20.7 14 4.4-1.8 10.2-2.6 12.3-7.5 1.3-3.4 5-4.9 8.6-4.9-.2 2-.4 4.2-.8 6.3 5.9 1.3 12 2.7 16.6 7 3.7 3.5 8.7 4.8 12.9 7.4-.4 3-2.1 5.7-3.4 8.4-1.6 3.3-.8 7.2-2.6 10.4-3.6 7.2-11.3 10.4-18.4 12.6-10 2.4-20.2.4-30.2-.3-6.9-.7-12.6-8.2-11-14.8 2.8-6 7-11 10.6-16.5-.3-.5-1-1.6-1.2-2.2-4 6.1-8.3 12-11.9 18.3.6 7.6 3.1 15.6 9 21 4 3.8 6.7 8.8 8.4 14.1-7-4-13-9.8-20.7-12.6 7.4 7.5 18.5 11.2 23.6 21 3.2 6.3 9.3 10.5 14.2 15.6l.8-2.9c3.1 1.5 6.3 3 9.5 4.2.5 4.5.8 9 1 13.6.8 11-3.6 21.3-3.8 32.3 5.2-14.3 8.1-29.4 8.3-44.5a39.4 39.4 0 0 0 29.9-14.2c-4.4 2.1-8.1 5.4-12.8 7a55.6 55.6 0 0 1-22.8 1.6 48.2 48.2 0 0 1-24-18c-2.3-4.8-2.6-10.2-3.2-15.4 4.1-2.2 8.8-3 13.4-2l.9 4.8c-2.2 1.4-4.3 2.8-6.3 4.4 6.4 1 7.3-5.7 9.9-9.9 3.3-2.3 7.7-1.6 11.6-2 .8 3.7 1.3 7.4 2 11 3.8 2 7.2 5.7 12 4.5 8.1-2.9 16.9-3.2 25.4-1.8-1.6 5.4-4 10.4-6.2 15.6 5.5-4.4 7.4-11.5 8.3-18.3l-12 .6-2.1-1.8c3.3-5 6-10.8 5.2-17-5.2-2.9-10.6-.6-14.8 2.8 4.2-.4 8.4-1.3 12.6-1.8-.4 3.2-.3 6.6-1.6 9.7C488 306 481 307.1 479 313c-5.4.3-12.2-3.2-13.4-8.8 0-8 10.2-6 15.2-9.6l-7.1.1c4.8-9.5 10-19.1 12.2-29.6-1.9-6.7-11-6-14.3-11.7-3.5-6-2.7-13.3-5-19.8m36.3 7.1a148 148 0 0 0-1.9 7l4.7-5.2-2.9-1.8m-92.4 34.9c2.7-5 4.5-10.7 4.6-16.5-3.9 4.5-4 10.9-4.6 16.5m-84-4c-1.9 26.8 0 54.8 12.6 79-9.3-5.3-14.5-15-21.1-23 2 8.9 5.9 17.6 12.3 24.2 5 1.5 10.2 2.4 15.4 3.4l-.2-3.4 9.6 5.2c-2 2-4 4-5.7 6.4l13.5-1.4-.5 4.6 7.2-.9c-6.3 11.4-12.2 24-10.3 37.3.3 4.7.7 10.8 5.2 13.6a66 66 0 0 0 28.7 12c6.9-1 12.8-5.4 18.4-9.2 7-6.7 10.8-15.8 14.3-24.6 4.2 5 7.7 11.6 5.8 18.3 5-1.9 10.2-3.3 15.5-4.5l-.8 10.7c2-3.4 3.8-7 5.6-10.5l4.1-1.3c-2.5-5-7-9.9-6-16-7.2-7.8-5.4-19.4-8.3-29l-2.8 16.7c-2.6-3.3-5.6-6.4-8.5-9.5l1-2.5-8.1-3.4a169.3 169.3 0 0 1-14.1-55.2c10.2 2.5 17.5 10.4 26.5 15.3-6.9-8-16.7-12.4-25.2-18.3-2-.9 0-2.5.7-3.4-5.6-7.8-1-17.8-1.3-26.6-3.7 6.8-5.8 14.3-8.8 21.4l-10.8-3.9c2.4-5.7 1.7-12 1.2-18.1-2.5 5.5-1.8 11.8-2.4 17.7-7.9 1-16.7.4-23.7 4.9 11 1.5 22.3 1.7 33 5.4-3.9 8.8-9 17-15.2 24.4.6-6 2-11.8 2-17.8-6.4 10.9-7.6 23.6-11.3 35.5l2 .2.3 3.8c-6.4 1-12.9 4.3-19.4 3.2A56 56 0 0 1 330 312c-3.8-13.2-.9-27-3.7-40.3m18 1c1.6 3.2 4.8 4.3 8 4.6a36 36 0 0 0-8-4.5m95.9.2c-1.6 1.8-2.3 4.1-3 6.4 2.4 0 5 .8 7.5 0 1.2-1.4 2-3.2 3-4.8-2.5-.4-5.1-1-7.5-1.6M126 305.3c2.4-7.8 5.3-15.7 5.8-24a47.8 47.8 0 0 0-5.8 24m185.5 3.2c.6-9 .6-18.1-.2-27.1-2 8.9-1.8 18.2.2 27m-163.1-24c-1.8 7.7-3.9 15.6-2.8 23.5a49 49 0 0 0 2.8-23.4m108.8 13A96.2 96.2 0 0 0 273 338c-2.4-1.2-4.8-2.2-7.2-3.1 3.8 3.4 7.9 7 13.2 7.7-1.4-2.5-2.8-5-4-7.5 6 2.8 10.5 8 16.8 10 12 4 24.3 8.8 37.3 7.2-15-4.3-31.3-6.5-44-16.5a70 70 0 0 1-20-21.8c-3-5.4-4.2-11.6-7.8-16.6m-132 16.5c-1 .6-1 2.4 0 3 1.8.3 1.8-3.4 0-3m324.3-1-1.5 4.9-5.2 2 9 1-2.3-8m-132.6 12.5c-.5-3.4-1.6-6.6-2.8-9.8-.7 3.5.8 6.9 2.8 9.8m135.6-1.7c-.8 1-1.5 2.2-2.2 3.3 3.5 1.7 6.6 4 10 6-2.7-3-5.3-6.2-7.8-9.3m-305.9 3.5c.7 9.7 4.5 18.8 5 28.5-.3 8.6-1 17.2-1 25.9.7 18.2 6.2 37.1 19.8 50 .3-7.8.9-15.6 1-23.4-1-13.3-4.3-26.2-6.6-39.3l8.2 2.7c-.9 2.8-2 5.4-2.8 8.2a113.9 113.9 0 0 1 91.8-3.5l-4.4-9.7c-2.6-5.7-9.5-7.1-14.7-9.5-15.6-6.8-32.8-2.7-49.2-2.7-3.6 6.6-11.6 7.3-18 9.9l3.5 1.2c-.8 1.3-1.7 2.5-2.7 3.6l-2.3-3.1-.8 3.6c-16.3-7.9-21.5-26.6-26.8-42.4m-23.2 5.5c-.8 16.1-1 32.6 2.8 48.4l1.6-1.4c-3.5-15.4-2.7-31.4-4.4-47m338.1 1.4c-1 1.3 1.2 2.9 2.2 1.6 1-1.3-1.2-2.9-2.2-1.6m-19.9 7.1v16.4c2-5.2 1.5-11 0-16.4m-226 4.7c8 1.1 16.3 1 24.4.3-7.8-3.3-16.4-1.3-24.5-.3m24 .3c4 4.3 9.7 6.5 15 8.6-3.4-5.2-9.2-7.3-15-8.6M106.1 438c-2.5-11-6.5-21.6-9.3-32.5-.6 11.5 5 22.1 9.3 32.4m329.7-2c-4.2 6.4-9.3 12.3-13.9 18.4 5.4-3.7 10.3-8 13.7-13.7 3.8-6.5 8.8-12.7 10.4-20.3-4.5 4.4-6.5 10.6-10.2 15.5m0 19.4c4-2.5 7.9-5.2 9.5-9.7a30 30 0 0 0-9.4 9.7m-170.3 6c-.3 6 5.5 8.7 10.5 10-3.3-3.5-6.7-7-10.5-10m211 14.2c2.7-1.8 4.8-4.3 6.4-7a17 17 0 0 0-6.4 7m-177.2.4c5 .1 11 .4 13.2-5.2-4.7.9-9 3-13.2 5.2ZM253.6 64h3.4c.8 2.5 1.5 5 2 7.5l-5.4-7.4ZM225.5 65.1c1-1.3 3.3.3 2.2 1.6-1 1.3-3.2-.3-2.2-1.6ZM292.8 65.5c1.7 2 2.8 4.4 3.4 7a21.4 21.4 0 0 1-3.4-7Z" />
        <path
            id="thumbnail-bg3"
            d="M471 66c31 13 54 38.7 75 64A221.3 221.3 0 0 1 585 207a267.5 267.5 0 0 1 11.3 81.7c0 16.6 1 33.5-2.5 49.9-5-7.6-6.5-16.7-9.6-25 .7 8.8 4.2 17.1 6 25.8 1.7 13.2 3.7 26.6 9 39-.8-12.9-8.3-27-1-39l-1 6.6c4.6 5.4 9.3 11 16.6 12.5.3 2.8.9 5.7 1.6 8.5l-7 3.6c2.4 4.5 5.5 8.7 9.1 12.3 2.9-4.5 1.7-10.7 5.7-14.5 3-3 5-6.9 6.6-10.7l-10.8-1.6c3.1-2.8 6.3-5.8 10.1-7.6 4.7-.5 8.1 3.4 10.8 6.7v39c-1 1.6-1.9 3.3-2.7 5.1l2.7 3v7c-2.6-2.7-5.2-5.7-8.3-8-1.7-.6-2.7 1.1-3.6 2.2-.5 4.6 1 9 2.6 13.3-4.5-1.4-9.4-3-12.4-6.9-1-2.3-1-4.8-1.5-7.3l7.6-3.2c-2-1.3-4-2.8-6.3-3.5-4 .8-8 2-11.8 3.2 4.6 6.4 8.9 14.2 16.8 16.9 5.3 2 11.3 1.9 16.9 1.5v2.4a36.2 36.2 0 0 1-20.8 3.8 64.1 64.1 0 0 1-37-22.8c1.5-2.7 3.4-5.2 4.3-8.1.3-7-3.8-13-6.3-19.4 4.3-5.2 12.2-11.6 8.7-19.2-5-9.9-14.4-16.4-22.6-23.4-3.6-2.8-7-6.5-8-11.1 0-2.7 1-5.2 1.5-7.8-3 3.3-6.5 6.4-10.3 8.9-1.4-8-3.4-16-3.9-24.3-.3-2.4 1.3-4.4 2-6.5-2-2-4.1-4-4.7-6.8-3-12-5.6-24-7.7-36.2a18 18 0 0 1 2-14.2 16 16 0 0 1-9.6-14.4c2-4.7 6.4-7.7 9.5-11.4-3.6 2.3-7.1 4.7-10.5 7.3a78.7 78.7 0 0 1-6.2-17.3c-1-4-4-6.8-6-10.3-3.4-6-7.4-11.5-10.3-17.7-1.4-2.6.2-5.4.9-8-9.3-3.8-15-12.7-18.4-21.7-6.6-3.4-11-9.8-15.5-15.4-2.7-2.8-.4-6.6.5-9.6-2.4-.7-4.6-1.7-7-2.2 4-4.7 7.8-9.4 11.4-14.3 2 1 3.9 2 5.7 3.3-3.7-5.1-3.7-11.2-3.1-17.1-1.1-6.4-5.3-11.8-7.5-17.8m12 36-.1 3 7-3.2c4.9-3.4 10 1.4 13 5.1 4.3 7.8 8.4 15.8 14.4 22.6 2.7 7.9 3.2 17.8-2.3 24.7 3.4-1.6 7-5.6 10.8-3.3 8.8 4.3 12 15.3 10.4 24.3-1.3 3.4-4 5.9-6.2 8.8 4.4-2.2 8.8-4.4 13.5-5.6A72.4 72.4 0 0 1 556 206c.3 6.5-.2 13-.3 19.6 6.4-14.2.2-30.5-7.1-43.2-1.7-3.8-5.5-5.8-9.2-7.2-1.7-7.2-1.5-15.7-7.1-21.4-4-4.2-12.5-5.2-11.1-12.8-1-5.8-1.3-12.2-5.3-16.9-5.5-7.2-9-16-15.4-22.4-4.5-5.5-11.8-1.3-17.3.4m66.7 126.2c.6 3.3 1.2 6.5 2 9.7 1.1-3.6 2-7.3 1.8-11.2l-3.8 1.5m2.7 12c-1.3 1.6-2.5 3.2-3.7 5 4-.3 8 0 11.9 1.3-2-3-5-5-8.3-6.4m8 7.3c.7 11.3 3 22.4 4.1 33.6l2.7-1.3c-3-10.6-3.4-21.8-6.8-32.3m-1.9 37.4c1.8 3.6 3 7.5 3.8 11.5.2-5 0-9.9 1.2-14.7-1.7 1-3.4 2-5 3.2m0 23 2.6.1-.8-8.5-1.7 8.4m41.4 72.7c.5 3.8 1.4 7.5 2.2 11.2l3.1.1c-1.6-3.8-3.4-7.5-5.3-11.3m30 8.5c-.3 4 4.4 4 7.1 3.5v-4c-2.3-.2-6.6-3.5-7 .5m-13.8-.5a68 68 0 0 0-1.4 4c3.9.3 7.8.7 11.6 0-2.5-3-6-4.7-10.1-4ZM230.1 67.3c1.7 0 1.6 2.7 0 2.6-1.7 0-1.6-2.7 0-2.6ZM365 68l5.4.3a168 168 0 0 1-5.3 2L365 68ZM247.6 77.4c1-3.8 3.1-8.9 8-8a67.4 67.4 0 0 1-8 8ZM374.5 69c2.4.8 4.7 1.9 6.9 3.2-2.5-.7-4.8-1.8-6.9-3.2ZM226.6 70.4c1.3-1 2.9 1.2 1.8 2.2-1.3 1-2.9-1.2-1.8-2.2ZM231.2 71.9c1.7-.7 2.5 2.8.6 2.8-1.3-.2-1.6-2.1-.6-2.8ZM255.4 72l4.4 2.6 1.1-3v7.7c-1.9-2.4-3.8-4.8-5.5-7.4ZM319.5 72.3c1-1.2 2.9.3 2 1.4-1 1.2-2.9-.3-2-1.4ZM292.9 75a19 19 0 0 0 2-2.3c.7 1.7 1.1 3.4 1.6 5.2-1.3-.9-2.4-2-3.6-3ZM332.2 75.8c1.4-.5 1.9 2 .6 2.4-1.4.5-2-2-.6-2.4ZM234.4 76.6c1-1.1 3.2.6 2.2 1.8-1 1-3.2-.6-2.2-1.8ZM298.2 76.2c1.6-.5 2.2 0 1.6 1.6-1.6.5-2.2 0-1.6-1.6ZM320.8 76.2c.4-1.3 2.8-.8 2.4.6-.5 1.3-2.9.8-2.4-.6ZM387.2 76.2c1.6-.5 2.2 0 1.6 1.6-1.6.5-2.2 0-1.6-1.6ZM256.5 78.7l2 1.5c0 1.6.2 3.2.4 4.9l-2.5-1.4.1-5ZM283.1 79.1c1.4-.5 2.3 1.8.8 2.2-1.4.5-2.3-1.8-.8-2.2ZM293.3 79.3c1.3-1 2.9 1.2 1.6 2.2-1.3 1-2.9-1.2-1.6-2.2ZM318.8 79.2c.9-1.2 3.3 0 2.5 1.4-.8 1.2-3.2 0-2.5-1.4ZM390.1 79.5c1.3-1 2.9 1.2 1.6 2.2-1.3 1-2.9-1.2-1.6-2.2ZM228 81.1l2-1.3 2 1.3v.8l-2 1.3-2-1.3v-.8ZM238.4 80.5c1.7-1 2.8 1.8 1.5 2.7-1.6.8-2.8-1.9-1.5-2.7ZM337.3 80.5c1.1-.9 2.6 1 1.4 2-1.1.9-2.6-1-1.4-2ZM280.4 88a9.3 9.3 0 0 1-.4-6.9c.6 2.2 1 4.6.4 6.9ZM284.2 82.3c2-.9 1.9 2.8 0 2.5-1.4-.1-1-2.1 0-2.5ZM301.4 82.4c1.2-1.3 3.4.8 2 2-1.2 1.3-3.3-.8-2-2ZM241 83h4v2h-4v-2ZM271.1 83.5c2 .6-.2 3.8-1.7 2.8-.9-1.1.4-2.8 1.7-2.8ZM231.2 84.8c1.4-.7 2.4 1.8 1.1 2.5-1.5.9-2.4-1.7-1.1-2.5ZM252.3 84.6c1-1.1 3.2.6 2 1.8-1 1.2-3-.6-2-1.8ZM229 95.6c2.1-3.5 4.5-6.9 7.3-9.8-1 4-3.3 7.9-7.3 9.8ZM240.4 89c3-1.2 6.1-2.2 9.3-2.8-2.6 2.2-5.9 4-9.3 2.7ZM295.1 87c1.8.7 3.5 1.5 5.1 2.4-2.4.4-4.9.8-7.3 1.4l2.3-3.8ZM342.1 87.1c1.8-.6 2 2.1.4 2.4-1.7.7-2-2-.4-2.4ZM251 88c2-.7 2.4 2.3.8 2.8-1.9.7-2.4-2.3-.7-2.7ZM345.5 88.5l3.6-.7-4.2 4.4.6-3.7ZM389.3 88.3c1.3-1 2.9 1.2 1.6 2.2-1.3 1-2.9-1.2-1.6-2.2ZM394.7 88.4c1.4-.7 3 1.8 2 2.9-1.6.7-3-1.7-2-2.9ZM279.7 89.5c1.2-.9 3.4-.1 3.7 1.3-.6 1.9-4.3.4-3.7-1.3ZM239.3 90.2l3.8 4.2-6-.1 2.2-4.1ZM10 96.8c-2.3-1.7-2.9-4-1.5-6.4a70 70 0 0 1 1.4 6.4ZM227.1 91.3c1.7 0 1.6 2.7 0 2.6-1.7 0-1.6-2.7 0-2.6ZM245 91h4v2h-4v-2ZM358 91.3c1.6 0 1.3 2.5 0 2.4-1.6 0-1.3-2.5 0-2.4ZM266.7 96.4c2-1.6 4-3 6-4.4a6.6 6.6 0 0 1-6 4.4ZM264.1 93c3.4-.6 0 4.2-.8 1l.8-1ZM327.6 93.3c1.2-1 3.1.9 2 2-1 1-3-.8-2-2ZM257.9 94.3c1-1 3-.3 3.4 1-.3 1.8-4 .7-3.4-1ZM248 98.2c.8-1 3-.8 3.4.5-.2 1.9-3.9 1.3-3.5-.5ZM35.8 100.3l7.3-.7-1.4 3.1h-4.6l-1.3-2.4ZM58.1 99.3c1.7 0 1.6 2.7 0 2.6-1.7 0-1.6-2.7 0-2.6ZM233.3 102.9c2.5-3 6-4.1 9.9-4.1-3.3 1.4-6.5 3-9.9 4ZM243.7 102.8a213 213 0 0 0 12.6-2.3l-.5 2.4h-12ZM46 103.1c1.6-1 3.2-1.8 5-2.4v5.2h-5.1l.2-2.8ZM226.5 102.4l2.4-1.4 4.5 3.3a11 11 0 0 1-6.9-1.9ZM257.2 108.6c2.4-3.1 5.6-5.6 8.6-8v3l-8.6 5ZM30.8 102.8l4.6 2.5c-1.3 3.5-.7 9.6-5.3 11-1.8-4.3-.4-9 .6-13.5ZM53.6 103.3c1.2-1 3.1.9 2 2-1 1-3-.8-2-2ZM238.7 103.2c.8-1.3 2.9 0 2 1.3-.8 1.1-2.8-.2-2-1.3ZM244.5 106.5c2-2.6 5.4-1.5 8-.9l.6 4.2a15.4 15.4 0 0 0-8.2-2.2c1 1.8 2.3 3.5 3.4 5.3l-3.6.2c-.2-2.2-2.5-5-.2-6.6ZM223.6 105.3c1.3-1.2 3.3 1 2 2.2-1.3 1.2-3.2-1-2-2.2ZM52.2 106.2c1.6-.5 2.1 0 1.6 1.6-1.6.5-2.1 0-1.6-1.6ZM463.1 106.1c1.5.5.5 2.8-.9 2.2-1.5-.5-.4-2.7 1-2.2ZM216.8 107.6l5.3 1.1-1.3 2.5a49.6 49.6 0 0 1-4-3.6ZM236 107h4v2h-4v-2ZM56 107.8l2 1.4v2.6l-4 1.4 2-5.4ZM215.2 109.3c1.5-.6 2.6 2 1 2.4-1.6.5-2.6-2-1-2.4ZM144.1 109.6l7.2 2-7.3.2.1-2.2ZM229.4 111.2c5-1.3 10.3-.5 14 3.4l-5 1.3-.9-3.4-8.1-1.3ZM212.1 111.1c1.6.5.5 2.8-.8 2.2-1.6-.5-.5-2.7.8-2.2ZM154.3 112.7c1.2-1 3 .8 2 2-1.1 1-3-.9-2-2ZM228.2 113c1.8-.3 1.8 3.3 0 3-1-.6-1-2.4 0-3ZM201.9 118.6c4.6-2.3 9.5-4 14.4-5.5l-5.1 4 1.6 2-5.6-1.3 1.8 4.2c-2.7-.5-5-1.8-7.1-3.4ZM224.3 113.2c1-1.5 3.5.2 2.4 1.6-1 1.5-3.5-.2-2.4-1.6ZM208.8 123.7c3.7-3.1 7-6.7 10.6-10 2 7.4-5.2 9.7-10.6 10ZM247.1 115c3.4-.6 0 4.2-.8 1l.8-1ZM538.8 115l8.3 1.3c-.8 5.4 4 6.6 7.6 8l2.2-9c5.5.1 11 .4 16.5.1l-6 6.8c5.9-.8 10.4-4.8 15.8-6.8 7-.6 14 .6 21 .8l-7.6 6.1c4 .5 8.4 1 11.2-2.4 4.3-5.6 12.1-3 18.1-3 .2 6.4.3 13 1.5 19.3.9 8.7-5.2 15.5-11 21 2.7 3 4.6 6.4 5.1 10.4-2.6.6-5.3.9-7.9 1.8a49.5 49.5 0 0 1-4-14.3c-2.6-3.4-6.2-6.2-6.9-10.7l-4.6.6c.6-4.5 2-9.5-.3-13.7a34 34 0 0 0-10-11.2c-2.3.1-4.5 1-6.7 1.6l.8 5.9-6.8 1.3a14 14 0 0 1-4.7 9.8c1.8 1.1 3.7 2.1 4.9 4-4.4 2.3-9.2 3.3-14 4.4-4.7-7-9-14.4-14.9-20.5-3.3-3.3-5.4-7.5-7.6-11.6ZM105.2 122.5c1.1-1.6 1.4-4.3 3.7-4.7.6 3 .5 6 .3 9a66.9 66.9 0 0 1-7.7-4.2l3.7-.1ZM632 118.2l8-.4V129l-7.6-.6-.5-10.2ZM189.7 128.3c4-3.4 8.2-6.4 13-8.3-3 4.3-8.1 6.7-13 8.3ZM416.2 122c1.8-.3 1.8 3.3 0 3-1-.6-1-2.4 0-3ZM31.1 123.3c1.7 0 1.6 2.7 0 2.6-1.7 0-1.6-2.7 0-2.6ZM203 124h3v3h-3v-3ZM199.3 125.5c1.9-.5 2.3 2.7.6 3.1-2 .5-2.3-2.6-.6-3.1ZM181.7 126.2c.8-1.3 2.9 0 2 1.3-.8 1.1-2.8-.2-2-1.3ZM419.3 127c1.3-1.1 3 1.1 1.3 1.9-1.4 1-3-1.2-1.3-2ZM180.3 128.2c2.8-.2-.2 4.2-2 3-.6-1.2.8-2.6 2-3ZM633.3 142c1.7-3.8 4-7.2 6.7-10.4v6.8a94 94 0 0 1-6.7 3.6ZM0 140.8c2.5-1.9 5-3.6 7.7-5.3l1.2 9.6-5.9-3-3 5.7v-7ZM120.3 142.9c1.1-2.6 2.4-5 3.4-7.6l1.4 6.4-4.8 1.2ZM65.2 140.6c1.7-1 3-4.8 5.2-3 2.8.8 2 4.6 3.2 6.5a111 111 0 0 1-8.4-3.5ZM64.5 149.7l6.8-4.7c-.7 1.7-1.5 3.4-2.4 5-1.5 0-3-.2-4.4-.3Z" />
        <path
            id="thumbnail-bg4"
            d="M564 149.6c4.2 0 8-1.8 11.1-4.3 1.3 1 2.4 2.2 3.6 3.4-4 2-8.1 3.8-12 6l-2.5-2-.2-3.1ZM7.3 150.6a8.8 8.8 0 0 1 8.7-3v4.5l-8.7-1.5ZM26.2 156.8c-.1-3.9 3.2-5 5.8-6.6 1.5 2.5 3.3 4.7 5.2 7l-11-.4ZM125.6 158.3c1.2-1 3 1 1.8 2-1.2 1.2-3-1-1.8-2ZM0 159.7l6.6.9c.6 3 1 5.9 1.3 9l-7.9-4v-6ZM139 164.6c1.3 1.4 2.8 2.8 4.3 4.1l-2.9 1.9c-1-1.9-3-3.8-1.5-6ZM611.3 171.5c4.5-1 7.1 3.4 8.2 7.1a20 20 0 0 1-8.3-7.1ZM6.5 174a19 19 0 0 1 9-1.2l-4 4.8-.1 5a122 122 0 0 1-4.9-8.7ZM631.4 178.6c3.2 1.4 8.1 2.7 5.5 8.1-2.4-2.2-4.5-5-5.5-8.1ZM614 179.8l4.2 1.2c-.3 1.7-.7 3.3-1.4 5H614v-6.2ZM579.4 184.8c1-1.4 1.7-3 2.4-4.5l1.5 5.9-4-1.4ZM13 182.6c2.3.7 4.7 1.3 6.8 2.7 1 1.9.5 4 .5 6.1-2.6-2.8-5-5.8-7.4-8.8ZM51.7 220.8c11.8-17.7 30.8-29 50.1-37 2 4.4 4 8.7 5.6 13.2-9.6 4.8-19.7 8.6-28.5 15-7.9 5.3-13.9 13-19.6 20.4l-7.6-11.6ZM37 196.3c1.6 0 1.3 2.5 0 2.4-1.6 0-1.3-2.5 0-2.4ZM500.2 196.2c1.6-.5 2.1 0 1.6 1.6-1.6.5-2.2 0-1.6-1.6ZM634.2 196.2c1.6-.5 2.1 0 1.6 1.6-1.6.5-2.2 0-1.6-1.6ZM632.2 208.5c1.7-1 2.6 1.8 1.2 2.6-1.6 1.2-2.6-1.8-1.2-2.6ZM628.2 234.2c1.6-.5 2.1 0 1.6 1.6-1.6.5-2.2 0-1.6-1.6ZM603.5 236.1c1-1.3 3.2.3 2.2 1.6s-3.2-.3-2.2-1.6ZM605.6 240c3.1-1.5 6.2-3.1 9.4-4.4l-1.2 4.6c-2.8 0-5.4 0-8.2-.2ZM634.2 237.3c1.4-1.2 3 1.4 1.6 2.4-1.4 1.1-3.1-1.4-1.6-2.4ZM637.2 244c.7-1 1.6-1.2 2.8-.7v.6c-.5 1-2.8 1.9-2.8.1ZM3 245.7c3.6 1 7 2.4 10.5 3.8L7 255l4 4.9c-3.4-1.8-7.3-2.8-11-1.2v-4.8l3-8.2ZM32.6 250.4c3.1.8 5.9 2.6 8.2 4.8-4.2 2-6.7-1.3-8.2-4.8ZM23.2 253l4.4 5c-4.9.5-10.3-.1-14 3.7l-2-1.1c4-2.4 8.2-4.4 11.6-7.6ZM597.2 254.8l3.6 1.3-2.6 5.1-1-6.4ZM0 262.7c3.9-2.2 10.3-1.4 10.2 4.1-2.4 3.3-6.5 3.5-10.2 3v-7.1ZM31.4 261.3c1.3-1.5 3.7.8 2.2 2.1-1.4 1.5-3.6-.8-2.2-2.1ZM13.7 263H21c.9 1.6 1.6 3.3 2.1 5a81 81 0 0 1-5.6 2l-3.7-7ZM37.7 267.1c1.6-2 2.5-5.6 6.3-4 1.9 0 1.7 3.2 2.5 4.6l-3.8 2.2-3.4-2c.5 3.3 1 6.5 1.3 9.8-1.3-2.3-2.4-4.7-3.5-7a12.7 12.7 0 0 0-5.7 6.8c-1.2-3.3-.8-6.7-.6-10l6.9-.4ZM54.2 263.3c1.4-1.2 3.1 1.4 1.6 2.4-1.4 1.1-3.1-1.4-1.6-2.4ZM9.8 271.6c2.5.3 5 .3 7.3.1l-.2 3.5-8.2-.9 1.1-2.7ZM599.7 271.5c2.1 3.8 3.7 7.8 4.4 12l-2.8-3.2-1.9 5 .3-13.8ZM237 272.9c6.1.5 12 2.2 17.6 4.7-5.9-.2-11.7-.9-17.5-1.7v-3ZM48 275.3c1.6 0 1.3 2.5 0 2.4-1.6 0-1.3-2.5 0-2.4ZM442.2 275.3c1.5 0 1.5 2.4 0 2.4s-1.5-2.4 0-2.4ZM0 280.8c5.2 0 10.4-.2 15.6-.4l1.4 9.2a51.3 51.3 0 0 0-17-2.3v-6.5m7.3 1.2c-.8.2-2.6.6-2.4 1.7 1.8 2.1 6.8-2 2.4-1.7ZM26.9 301.9C41.6 299 53.4 289 66 281.6c3.2.8 6.3 1.6 9.4 2.6-21.4 17-48.7 24-75.4 27.1v-2c8.6-3.6 17.9-5.3 26.9-7.4ZM628 281.8c1.4 1 3 1.8 4.4 2.7l-4.2 2-.2-4.7ZM31.8 283h5.8l-.2 4.5-5.6-4.4ZM22.2 283.4a41 41 0 0 0 4.3 3.5l.6-3.2c2 2.1 4.4 3.8 7 5-3.8.4-7.5 1.4-11.3 2.3-.3-2.6-.5-5-.6-7.6ZM604 292.2c3.6-1 7.1-2.7 10.8-3.2 3.9.8 7.3 2.8 11 4.3l-.7 6.8 6-6.8 3.5 1c1.4 6.1 1.9 12.6 5.4 18.1v9.7c-5.9.3-11.9.1-17.5-2-1.8 4.4-.4 8.6 2.7 12-4.9 3.2-10.7 4-16.4 4.3 3.5-5.4 6.9-11 8.4-17.3l7.6-1.6c-1.4-5-4-9.3-6.6-13.8-1.6 5.3-2.7 12.6-9.4 13.2-5.2 1.3-5.8-6.4-4.8-9.6 3.2-5 8.4-7.9 13.2-11.1-2.3-1.4-4.5-3-6.8-4.3 1 2 1.8 4 2.6 6l-5 1c-1.4-2.1-2.6-4.5-4-6.7m16.9 10.6 2.4 6.6c1.7-1.9 2.7-4.3 3.7-6.5-2-.2-4-.2-6.1 0m7 4 .2 3.4c2.4-.7 5-1.3 7.5-1.5l-7.6-1.9ZM630.7 290.9l4-3.6-.9 4.8-3-1.2ZM36.1 289.1c1.5.5.5 2.8-.9 2.2-1.5-.5-.4-2.7 1-2.2ZM597.3 293.4l4.5-4.8 1.4 3.7c-2 .4-4 .8-6 1ZM0 291.9l1 .2v4.8l-1 .3v-5.3ZM3.5 298.4c.8-6 7.8-5.2 12.4-5.6-1 3.2-.2 8.7-4.8 9.1-3 .5-8.5.8-7.6-3.5ZM22 293.6c2.6-.3 5.3-.5 6.9 2l-6.9 2.6v-4.6ZM377.4 296.5c3.7-1.6 7.8-2.7 11.3-.1l-11.3.1Z" />
        <path
            id="thumbnail-bg5"
            d="M599.8 300.5c.6-2.4 1.5-4.8 2.4-7 0 1.7.3 3.5.6 5.2l3.4-1.7-1 4.4c-1.9-.2-3.7-.5-5.4-1ZM82.8 295.2c1-1.4 3.8.3 2.5 1.9-1 1.5-3.7-.4-2.5-1.9ZM77.7 298.1l3.1-2.2-.2 8.3c-1.6-.4-3.3-.9-4.9-1.5 1-.8 2-1.5 2.8-2.3a43 43 0 0 1-.8-2.3ZM89.2 296.8c1.4-.5 1.9 2 .6 2.4-1.4.4-1.9-2-.6-2.4ZM388.2 297.4c3.8-1.8 7.8-.1 11.6.8l.2 3c-4-1-7.9-2.5-11.8-3.8ZM69.3 302c2-1 2.6 1.9.5 2-2.1 1-2.7-1.9-.5-2ZM53.7 310.2c3.4-2 7-3.8 10.9-5-3 2.7-6.7 4.7-11 5ZM80.2 306.1a87 87 0 0 1 1.5-1l2.3 5-2.7-.3a70 70 0 0 1-1.1-3.7ZM50.1 311.5c1.3-1 2.9 1.2 1.6 2.2-1.3 1-2.9-1.2-1.6-2.2ZM80.3 311.5c1.1-.9 2.6 1 1.4 2-1.1.9-2.6-1-1.4-2ZM618.7 311.5c1.8-.5 2.4 3.4.6 3.6-1.1-.7-1.5-2.7-.6-3.6ZM39.8 314.6l5.6-3c1 3.9-1 6.8-4.2 7.9l-1.5 2.4c-7-1.6-14-2.5-21-3 8.6-1.2 17-5.5 25.8-3.4l-4.7-.9ZM598.5 313.2c.6 3.6 2.3 7 2.9 10.6l-3.4 1.5.5-12ZM51.6 316.3c.9-.9 2.6-1.1 3.5-.1.7 2.2-4.7 2.6-3.5.1ZM80.2 317.8c1.4-.7 2.4 1.8 1.1 2.5-1.5.9-2.4-1.7-1.1-2.5ZM5.7 322.8l6.4-3-2.3 3.1-4.1-.1ZM48.2 320.2c1.6-.6 2.1 0 1.6 1.6-1.6.6-2.1 0-1.6-1.6ZM7.6 333.3c1.6-3.6 1.8-9.8 7.3-10l-1.8 3.6c4-2.3 8.6-2.5 13-3.5.8 3.3 1.6 6.6 1.3 10-6.6.8-13.2 0-19.8 0ZM0 327c1.5-1 3.2-1.7 4.8-2.4.3 4.6-1.2 9.1-4.8 12.2v-9.9ZM50.2 326.2c1.6-.6 2.1 0 1.6 1.6-1.6.6-2.1 0-1.6-1.6ZM378.3 341.5c7-5.7 14.3-11.2 22.3-15.6l10.2 22.5a127 127 0 0 0-32.5-7ZM46.4 326.3c1.3 2 1.3 4.4 0 6.4v-6.4ZM31.8 328l4 3.2-.8 1.8-2.8-1.3-.4-3.7ZM58.2 328.4c1.7-.2 2.6 3 .8 3.3-1.8.2-2.6-2.8-.8-3.3Z" />
        <path
            id="thumbnail-bg6"
            d="m63.5 328.8 3.3 2.5c-3 10.6-4.2 21.9-10 31.4-3.8 6.6-7.5 13.1-11.8 19.4-4.5 6.1-10.2 11.4-14.7 17.6 8.3-5.3 15.6-12.2 24.7-16.3-4 10.8-8.7 21.4-14.2 31.5-5.5 10.3-15.5 17.1-22.5 26.3a80.1 80.1 0 0 0-10 17.2c-3.3 6.8-2.6 14.6-2.7 22a54.4 54.4 0 0 1 18.5-11l-4.2-4.1c3.3-1 6.5-2.2 9.8-3-5.2-4-12.1-5.1-18-2l1.4-5 1.2 1.2c1.2-6 4-11.5 8.5-15.7 3.2-2.9 7.8-2.4 11.8-2.9-3-1.2-6.3-1.8-9.7-1.8 4.8-3 9-6.7 14-9.2 3.8-2 7.2 1.9 10.2 3.8a16.8 16.8 0 0 1-7.4 2.4c-.7-2.3-1-4.6-1.4-7-.5 3.4-1 6.8-1.3 10.2 5-.1 10-.8 15-.3-2.3 3.2-6.3 5.6-7 9.8 4.6 4 13.6 2.4 15.3 9.4-3-.8-6-1.8-9-2.8l-.7 3.4c-4.8-2.4-9.4-6-15-6.4-4-.3-7.8-1.2-11.6-2l4 8.9a33 33 0 0 1 3.5-3.1c2.2 1.4 4 3.4 6.2 4.9 4 .5 8.3.4 12.4.2l-2.6 8.5 6 .2c0-3.7.2-7.3.4-11h7.2l-1.5 5.6 4.6-1.6c1.2-1.4 2.3-3 3.6-4.3 4 0 7.7 1.1 11.4 2.2 1.7-2.8 3.7-5.5 4.6-8.7-1.9-5.9-7.5-10-8.3-16.4-2-12.6-.2-25.4.7-38 3.6 1.3 5.7 4.6 6.3 8.2a145 145 0 0 1 5.2 19.3c-2 .7-4.2 1.3-6.3 1.8 2.4 1.4 4.7 2.8 7.2 4l-.5-5.3c2 3 4.5 5.7 5.2 9.2-.7 17.2-4 34.4-11.2 50.1-2.2 4.5-7.7 4.5-12 5.4l1.9.6c-.5 3-.5 6.3-1.5 9.3-2.6 1.2-5.5 1.4-8.2 2.3-.8-1.6-1.7-3-2.6-4.5l4.2-3.9c-5 .4-10 1.2-15 2-3 .3-4.2-3-5.7-4.9-9.1-.6-18.2.3-27.3.1-4.7.1-7.2-4.3-10-7.3l.8 5.2c-3.2-3.6-6.1-7.5-8.7-11.6V368.5c8.7-3.3 17.7-6.2 25.9-10.8 12-7.4 26.2-12 35.7-23.2 1.4-1.6 1.4-3.8 1.9-5.7m15.3 80.4 1.7-1.3c-.3-3.2-.2-6.5-.1-9.8-2.2 3.3-1.9 7.3-1.6 11m-71.1 16c4.3-3.4 8.2-7.6 10.8-12.5-5 2.6-8.1 7.7-10.8 12.6m75-10.6c.8 1.9 1 4.3 2.9 5.5.8-1.7 1.4-3.5 2-5.3a38 38 0 0 1-5-.2m-4.9 6.8c1.4-2 2.5-4 3.4-6-1.7 1.6-2.9 3.7-3.4 6m-54.1 19.9c-1.2 1.2.7 3.4 2 2.2 1.3-1.2-.7-3.4-2-2.2m62-.1c-1 1.2 1 3.3 2.2 2.1 1.3-1.2-.9-3.4-2.1-2.1m-53.5 16.4L32 461c1.4 0 2.9 0 4.4-.2a79.2 79.2 0 0 0-4.2-3.2m53 4.8c-1.7.3-1 2.9.6 2.6 1.7-.3.9-3-.6-2.6m-28.8 4c2.5.7 5 1.4 7.6 1.9v-3.8c-2.8-.2-5.4.4-7.6 2m6.4 4.9c-4 .8-8.3 1.3-12.4 1.5 1.1 2.6.7 7.2 4 8.6 5.6 2.4 12 1.8 17.9 1.7l-.6-9.9a7.4 7.4 0 0 0-8.9-2ZM631 332.5l9-.8v14.6c-4.4-3.6-7-8.7-9-13.8Z" />
        <path
            id="thumbnail-bg7"
            d="M54.3 333.2c.9-1.4 3.3 0 2.2 1.4-.9 1.4-3.3 0-2.2-1.4ZM72.3 333.7c1.9-1.4 2.6 3.6.7 3.7-1.3-.6-1.5-2.6-.7-3.7ZM19 338.4l14-1.7 1.7 3.6 2.7-.8c-2.3 2.6-5 4.9-6.2 8.2-10.3 1.7-20.7 3.6-31.2 2.4v-10.8c4.7-.6 9.5-.2 14.2 0a353 353 0 0 0 2.7 9.2c1-3.3 1.5-6.7 2.2-10ZM47.5 340.4c2-2.1 4.3-3.7 6.9-4.7-1.7 2.2-4 4-6.9 4.7ZM40.5 344.7l3-8c-.2 2.8-.5 5.8-.4 8.7l-2.6-.7ZM560.6 336.7A69.8 69.8 0 0 1 581 356c-.4 3.6-3 6.3-5 9-5.8-9-14-17.2-15.3-28.4ZM514 351c5.3-5.6 11.4-14.4 20.2-12.1A524.9 524.9 0 0 0 517 365l-2.8-.2c-2.4-4.3-5-10 0-13.9ZM74.2 339.5c1.7 0 1.7 3 0 3-1.8 0-1.8-3 0-3ZM45.2 341.2c1.6-.6 2.1 0 1.6 1.6-1.6.6-2.1 0-1.6-1.6ZM68.1 346.8c-1-2.3-1.3-4.6.3-6.7.1 2.3-.1 4.5-.3 6.7ZM379.3 344.4a71.3 71.3 0 0 1 30.4 5.9c3.7 1.2 5.6 4.8 7.6 7.8-7.4-2.4-14.3-6.3-22.1-7.5-5.9-1.3-12-1.3-17.9-2 .6-1.4 1.1-3 2-4.3ZM24.1 353.2c1.8.5.6 3.3-1 2.8-1.9-.6-.6-3.3 1-2.8ZM11.6 355c3.4-.9 6.8.1 10 1.5l-9.7 4.6.3-3.7 4-1-4.6-1.4ZM0 354.8l6.6.7-.6 4.6c-2 .3-4 .4-6 .4v-5.8ZM69.2 357.7c1.6 0 1.2 2.8-.3 2.8-1.6 0-1.1-2.7.3-2.8ZM524.8 371.7c1.9-4.7 3.7-9.6 7-13.6-.2 5.2-2 10-3.5 15l-3.5-1.4ZM0 361.8l6.5.6c-2.2 1-4.4 2-6.5 3.2v-3.8ZM365.2 363.2c1.6-.6 2.2 0 1.6 1.6-1.6.6-2.2 0-1.6-1.6ZM368.8 363.2c.4-1.3 2.8-.8 2.4.6-.5 1.3-2.9.8-2.4-.6ZM394.3 371.5c2.8.6 6.5 1 7 4.5-3.8 2.9-6-1.1-7-4.5ZM615.2 372.3c1.5 0 1.5 2.4 0 2.4s-1.5-2.4 0-2.4ZM567.9 378l4.8-1c1.8 4.7 4.3 9.5 4 14.6-3.4 4.2-9 5-13.8 6.8-1.9-6.9-2.2-14.3-.9-21.3 5 4.5 8.6 10.3 13 15.4a39 39 0 0 0-7.1-14.4ZM49.2 380.2c1.6-.6 2.1 0 1.6 1.6-1.6.6-2.1 0-1.6-1.6ZM517.3 391.9a18 18 0 0 1 4.3-11.5c1.5 1.2 3 2.5 4.2 3.9 0 3.4-.2 6.8-.4 10.3 2.2-3.8 4.2-8 8.5-9.5.2 5.2-.2 10.3-1 15.4a89 89 0 0 1-15.6-8.6ZM363 399.4c2-1 3.9-2.3 5.9-3.2l-1 3.9-4.8-.7ZM374.8 402.4c1.5-2.8 3.8-4.9 6.8-6l2.9 6.7c4 .4 8 .3 11.9.1-.4 3.2-.5 6.4-1 9.6l5.7-.6c.2 3.5 1.5 8.5-2.3 10.6-6.4 5-15 1.8-21.7-1-5.2-2.8-12.4-5.4-14-11.9.1-5.4 6.8-12.8 11.6-7.5Z" />
        <path
            id="thumbnail-bg8"
            d="m386.4 398.2 3.6 1-.4 3.4c-1-1.5-2-3-3.2-4.4ZM432 399.3a13 13 0 0 1 3.1 7.1 31.9 31.9 0 0 1-3.1-7.1ZM52 406.3c1.6 0 1.3 2.5 0 2.4-1.6 0-1.3-2.5 0-2.4ZM43.5 424.8c6-7 14.8-11.2 21.4-17.8.7 5.2 1.6 10.5 2.2 15.7-3.6 1.1-7.1 2-10.7 3.2l1.8 5.4c-3 0-6 0-9-.2l-.8-4.2-5-2ZM586.7 410c4 2.5 8 5 11.6 8.3-4.8-1.3-9-4.2-11.6-8.4ZM45.1 411h.8l1.3 2-1.3 2h-.8l-1.3-2 1.3-2ZM577.6 414c2.7 1.4 2.9 5 4 7.6 4.3 15.8 1.9 32.6 3.1 48.8a52.8 52.8 0 0 1-12.3-31.4c-1-8.7 2.2-17 5.2-25ZM39.5 421c1.7-1.7 3.7-3.1 5.9-4.3a28 28 0 0 1-6 4.4Z" />
        <path
            id="thumbnail-bg9"
            d="M61 427.1c1.7-1 3.6-1.7 5.4-2.3 1.4 2.7 2.8 5.4 3.8 8.3-3.1-.5-6.2-1.1-9.3-1.9l.1-4ZM620.1 425.6l.8 5c-1.7 1.7-3.8 2.8-5.8 4 1.5-3.1 3.3-6 5-9ZM58.7 435.3l7.6 1.4L64 444l5.8-2.5c-1-2.2-2.1-4.5-3-6.9 5.1 5.2 10.7 10 14.7 16.2-3.2-2.4-6-5.5-9.6-7.4-6.3.6-12.6 5.2-18.6 1 3-1.4 6.4-1.7 9.6-2.3l.6-1.6-4.8-5.3ZM592.6 455.2c3.1-4.8 7.2-8.8 12.4-11.4l1 2.7c-4.6 2.7-8.8 6-13.4 8.7ZM618.6 448.8c1.4-1 2.7-2.2 4-3.3l1.7 3.5-5.7-.2Z" />
        <path
            id="thumbnail-bg10"
            d="M69.1 447c3.4-.6 0 4.2-.8 1l.8-1ZM72.2 449.2c1.6-.6 2.1 0 1.6 1.6-1.6.6-2.1 0-1.6-1.6ZM513.3 449l2.3.5c.7 7.4-.8 14.6-4.5 21.1 1 3.3 1.8 6.7 2.4 10.1-1.7 7.8-7 14-10.8 20.8 7.7-5.4 12.3-13.9 17.2-21.6h3.8c-.2 9-3.4 17.4-6.3 25.6a55.2 55.2 0 0 1-25.6 30.2c-6.6 2.5-13.6 3.6-20.4 5.5 4.6 2.1 11.6.3 15.3 4.2.2 7.3-5 13.6-9.6 18.7-12.6 11-30 13.7-45.5 18.4l18-.5c-.7 9.5-2 19.6-8.8 26.8-6.8 9.6-19.8 8.2-30 10.1 2.3 1.3 4.8 2.3 7 3.8A71.4 71.4 0 0 1 415 640h-38.8c7.4-9 17.7-14.6 28.1-19.4-5.7.6-11.3 1.3-17 1.8 1.9-6.5 5-12.6 7.7-18.9-2.7 3.2-5 6.6-7.4 10a45.3 45.3 0 0 1-3.3-35.2c4.4-7.9 13-12.3 21.5-14.7a29.6 29.6 0 0 1-4.9 33.4c10.2-4.7 20.7-8.7 30.7-13.9-5.3 1-10.3 2.9-15.6 4a84.3 84.3 0 0 1 11-22.8c-5.4 5.2-9.3 11.6-13.8 17.5-2.9-9.1-4-18.8-4-28.3 0-9.2 6-17.2 14.3-20.8 3.8 4 9.8 7.4 10.4 13.4-1.3 5.8-4.2 11.1-5.5 17a112 112 0 0 1 26.8-19.3c-5.2 1-10.3 2.5-15.3 4 2.9-5.8 6-11.7 7.3-18-3.8 4.9-6.9 10.4-10 15.8-6.5-7.2-8.6-17-10.6-26-1-5.4-1.4-13 4.3-15.8 7-3 14.8-3.4 22.2-4.2.8 4.5 1.7 9 1.7 13.4-1.4 5.8-4.6 10.8-7 16.1 7.5-5.8 14.8-12.5 24.1-15.1a133 133 0 0 0 19.7-6.6c-9.6 1.4-19.2 1.4-29 1.2-.9-4-1.7-8-2.4-12.1a95.7 95.7 0 0 0 31-20.4c7.2-9 15.9-17 22-27m-117 151.3c-1.3.8 0 3 1.3 1.8 1.1-.8-.2-2.9-1.4-1.8ZM68.5 451.3c1-1.5 3.8-.2 2.8 1.5-.9 1.5-3.9.2-2.8-1.5ZM92.6 464.4h2.2c2.9 10.3 6.6 20.3 9.1 30.7-.3 3-1.5 6-3.2 8.4-2.5 1.3-5.4 1.4-8 2l6 5.4c-1.3 4.6-2.7 9.1-4.2 13.7-2.3 6.7-7.2 12.2-10.5 18.4-6 11.3-14.7 20.8-21.9 31.4 6.8-6.2 13-13.1 20-19-2.6 10.1-8 19.3-13.1 28.4A387.5 387.5 0 0 1 34.5 640H0v-7.2c4.8-3.7 10-7 13.4-12-4.8 2.2-9 5.6-13.4 8.7v-38.7c3.6-3.3 6.5-7 8.5-11.5 3.6-3.4 9.1-3.6 12.7-7A237.4 237.4 0 0 0 60 529.8c15.7-19 26.7-41.6 32.7-65.5M36 601.4a75.9 75.9 0 0 0 24.5-25.8c-9 7.7-16.5 17.1-24.5 25.8Z" />
        <path
            id="thumbnail-bg11"
            d="M128.6 473.9c1.8 3.6 4.5 7.4 3.8 11.6-.8 4.7-2.4 9.2-3.4 13.8 3.6-5.3 7-10.8 10.8-16 4.9 5.5 9.7 11 13.5 17.2 1.8 4.3 1.4 9.1 2.2 13.7l1.7-6.2 2.6.2 5.2 11c5.6 9.6 3 21.2 4.3 31.7-.5 8 4.5 14.7 7.6 21.7-5.7-4.5-11.7-9-15-15.4-4.7-7.1-4.5-16-5.4-24.1h-1.7c1 12.5 3 25 4.8 37.4 1.7 10.9 6 21.4 13.1 29.7-5.7.2-11.5 0-17.2-.5 8 3.2 16.8 2 25.2 1.1l-.5-1.7c-4.4-2.4-9.6-4.5-12-9.3-2.9-6.5-4-13.8-3.1-20.9 6.4 2.8 12.7 6.5 20 6-4-4.4-9.7-8.1-10.4-14.5A13.2 13.2 0 0 1 185 547c8-4 16.4 1.2 24.3 3.4 11.4 5 27 4.8 33.6 17-13.1 6.6-31.9 3-41 16.7 1 7.3 4 14 6.2 20.8 1.1 2.5 2 6 5.2 6.6 7 1.5 14.2.8 21.3 1-9.5 9.4-19.4 18.4-29.2 27.5h-93.9c-3.5-9.5-1.7-19.6-.3-29.3 1-7-.2-14 .2-21 1.2-1.6 2.8-2.8 4.2-4-3.2-8.1 0-17 4.3-24.1 2 9.3 8.8 16.8 10.4 26.2 3.2 2 7 3.3 9.4 6.4 2 4.4 1 9.4 1.6 14-3.4.6-6.8 1.2-10.3 1.5a36 36 0 0 1 11 11.4c1-8.6 1.2-17.3 1.7-26 2.6 1.8 5.5 3.1 8.7 3.4-6.9-5.4-14.6-10-20.1-16.9-10.2-11.4-11.2-27.6-13-42.1L117 544a72.4 72.4 0 0 1 1.2-43.9c-2.3 2.8-4.2 6-6.8 8.3-4.6 3-10.2 1-14.8-.8 5.8-2.4 12.4-3.3 16.7-8.1 7.3-7 11.2-16.6 15.2-25.6m-8.2 59.6c1.2-5.6 1.9-11.3 2.3-17-2 5.4-3.5 11.2-2.3 17m-2.5 73.8c.6 1.5 4.6 1.5 5.2 0-1.4-1-3.8-1-5.2 0m8.9.9c-.5 1.4 2 1.9 2.4.6.5-1.4-2-2-2.4-.6m19.5 13.4c0 5.7 0 11.3.2 17 1-5.6 1.3-11.4-.2-17m-4.8 1.8c-.5 4.9-.6 9.7-.7 14.6h2.5c-.4-5-1-9.8-1.8-14.6ZM0 478.8c3.6 5.1 8.1 9.6 12.8 13.9-2 .4-4 1.5-6.1 2.1-.7 4-3.5 6.8-6.7 9v-25ZM551.3 484.6c6.6 9.6 9.8 21 14.9 31.3 5 10.1 8.5 21 14.6 30.5-4.4-17-13.7-33.1-12-51.2 6.5 6.8 11.8 14.7 18.5 21.5A64.6 64.6 0 0 1 601 541c2.8 9.2 7.6 17.5 12.3 25.8 3.7 6.5 9 11.9 12.3 18.6-5.5 2.8-10.9 5.9-16.3 8.9-9.9-12.6-16-27.6-25.2-40.6a182 182 0 0 0 23.2 41.5c-5 5-11 9.1-14.8 15.2-1.8 3-3.9 5.7-6.4 8-8.5-20.4-20.5-39.6-24.8-61.5-5-23.8-11.2-47.8-10-72.3ZM75 498.3c1.6 0 1.3 2.5 0 2.4-1.6 0-1.3-2.5 0-2.4ZM14.8 499.5l9.7 1.2a42.4 42.4 0 0 1-8 3.9l-1.7-5.1ZM60.4 500.3a7 7 0 0 1 4.6 6c2.6.4 5.1 1.2 7.5 2.1-2 3-4.3 5.7-6.6 8.5-3-1.8-7.5-2.4-8.6-6 .1-3.8 1.8-7.2 3-10.6ZM13.5 504.8c3 .6 6.3.6 9.3-.1l.6 3.3c8.5 1.5 19.1-2.3 25.5 5-2.5 1.9-4.9 4.5-8.5 3.5-6.7.5-13.5-.8-20.2.7-2 1.9-3.7 4-5.3 6.2-5.6-4.9-2.3-12.4-1.4-18.6ZM4 505.3c1.6 0 1.3 2.5 0 2.4-1.6 0-1.3-2.5 0-2.4ZM629.3 512.2c1.9-.8 2.6 2.5.8 3-2 .6-2.6-2.5-.8-3ZM640 518.7c-3.2 1.8-3.2-3.6 0-1.6v1.6ZM606.4 517.4c10.3 17 20.6 34 33.6 49.2v12.1c-10-9.9-19.7-20.3-27.8-31.8-6.1-8.6-6.1-19.4-5.8-29.5Z" />
        <path
            id="thumbnail-bg12"
            d="M21.3 519.4a249 249 0 0 1 4.3 4.3l-4.7.4.4-4.7ZM0 526.9l4.6-2.8c.2 4.4.2 8.9.1 13.4L0 538V537c.7-3 .7-5.9 0-8.8V527ZM240.8 527.5c2.4 0 4.8 0 7.2.4 2.7 3.7 4.2 8.6 8.6 10.7 5.8 2.3 8.5 7.8 11.2 13 4-1.4 8.8-1.7 12 1.5 7 5.4 7 15.2 7.6 23.3-6.7-1.8-13.4-5.5-16.2-12.2l-1 1 1.4 4.3c-4.8-3-9.7-6.4-11.4-12.1l-4.3.3a63.5 63.5 0 0 1-15.1-30.2ZM7.2 528.5c1.7 0 1.7 3 0 3-1.8 0-1.8-3 0-3ZM20 531h4l1.3 3H20v-3ZM45.8 541.6c2.3-3.5 4.9-6.7 7.5-9.8-.8 4.3-3 8.4-7.5 9.8ZM363.2 533.2c1.6-.6 2.2 0 1.6 1.6-1.6.5-2.2 0-1.6-1.6ZM0 538.2c2.6 3 6 6.3 5.6 10.7-.7 5-3.6 9.3-5.6 13.8v-24.5ZM333.4 546.4l10.1-3.5 2.5 2.4c-4 .2-7.4 2-10.9 3.7l-1.7-2.6ZM17.5 557.6c1.1-5.1 4-9.7 7.1-13.8.4 1.6 1 4.8 1.5 6.4l15-1.1c-3.3 3.3-5.5 8.2-10 10-4.5-.6-9-1.4-13.6-1.5ZM308.5 563.5a25.7 25.7 0 0 1 18.8-7.7c-5.8 10.9-13.5 22.8-27 24-.7-6.6 4.3-11.7 8.2-16.3ZM478.5 575.3c1-1.2 2.9.3 2 1.4-1 1.2-2.9-.3-2-1.4ZM1.1 577.5c1.2-.9 2.6 1.1 1.4 2-1.2 1-2.6-1.2-1.4-2ZM500.7 577.1c.8-1.2 2.9.1 2 1.4-.8 1.1-2.8-.2-2-1.4ZM595.3 610.3c11.8-13.8 28-22.8 44.7-29.3v53.1c-3.2-2-3.3 3.4 0 1.6v4.3h-68c3.7-1.5 8.4-1.5 11.5-4.4 4-8.4 5.2-18.2 11.8-25.3m33.2 28.8c3-.8 6-2 8.2-4.3-3 .6-5.9 2.1-8.2 4.3ZM0 583.2c2.5-2.7 3 1.8 0 1.7v-1.7ZM476.3 593.3a40.4 40.4 0 0 1 24.4-11.4c-5.7 16-1.8 34-9.5 49.5-2.4-2.4-4.7-5-7.2-7.2-2.1 5-2.8 10.4-2.3 15.8H417c1.8-3.4 2.9-7.5 6-9.9 5.3-3 11.5-3.6 16.8-6.5 4.4-3.5 5.7-9.1 8-14 2.6-6.5 10.9-6.3 16.6-8.5l2 5c2-6.3 4.1-12.4 6.4-18.5-1.2 9-3.6 17.9-4.8 27a166 166 0 0 0 8.1-7.4l-4.6.3c1.4-4.7.7-10.8 4.8-14.2m-12.1 14c-1.5 1 .2 3.5 1.6 2.4 1.5-1-.2-3.6-1.6-2.4m-3 12.5c1.8-2.3 3-5.2 2.8-8.2a52.5 52.5 0 0 0-2.8 8.2m6.5-5c-1.7 7.1-5 13.7-7.8 20.4 3.7-5.7 9.5-9.2 15.4-12-2.9.4-5.7.9-8.6 1.5l2.4-7.6-1.4-2.3m8 8c4.4 0 8.8-.3 13.2-.7-3.9-3.7-9-.4-13.2.8m-22.6 13.6c2.7-2.2 4.5-5.3 5-8.8-1.8 2.9-3.5 5.8-5 8.8ZM269.2 597.2c3.2-3 6.7-8 11.8-5.3 4.8 2.3 3.6 8.5 4.7 12.7l3.4 3.3-7.2.2c2.3 2.3 6.5 5.5 4.4 9.1-4.2 5.7-11.3 7.7-17.3 11a553 553 0 0 1 1.8 3.4h-5.3c-3-3.6-4.5-8.2-6.6-12.3l1.6-1.3 3.8 8.7 2.9.4c-2.3-5.2-5.6-10-7.5-15.3 0-2 1.7-3.7 2.4-5.6 4.6 0 7.3 3.6 10.3 6.4 2 .1 3.9-.3 5.8-.5l-.9-2.3c-4.6 1.6-7.1-2.7-9.7-5.8a61 61 0 0 1 4-1l2 5.3a138 138 0 0 0 10-4.3c-.3-3.8-.7-9-4.8-10.7-6 1.2-9.4 7.3-15 9.4-3.4.9-4.6 4-5.5 7l-2.7.3c.7-2.3 1.3-4.8 2.6-6.8 3-3.1 8.1-2.7 11-6ZM339.3 602.5c1.1-.9 2.6 1 1.4 2-1.1.9-2.6-1-1.4-2ZM360.2 619.2c3.9-6.5 10.5-10.4 16.5-14.7 1.3 4.9 2.6 10 2.6 15.2a177 177 0 0 1-5 20.3h-19.8c.9-7.2 1-14.9 5.7-20.8ZM288 621.5c1-3.1 2.7-6 4.3-8.8-.4 3.3-1.8 6.4-4.3 8.8ZM353 618.3c1.6 0 1.3 2.5 0 2.4-1.6 0-1.3-2.5 0-2.4ZM348.2 640c.5-2 3.2-2 3.6 0h-3.6Z" />
    </g>
    <g fill="#a1acbe">
        <path
            id="thumbnail-fg0"
            d="M306 16c7-3.2 14.5 0 21.5 1.4-7.8.6-15.8.2-23.4 1.7-4.9 1-6.1 6.2-7.5 10.2-2.8-2.4-6-5.2-10-4.7-8 .9-15.8 3-23.5 5.5a19 19 0 0 0-9.8 8.3l11 3c-8.6 0-17.4-.4-25.8 2-5 1.4-10.5.8-15.4 2.6-5 2-7.8 7.2-9.8 12l8.1-.3c3.3-4.9 7.7-8.9 12.4-12.4-3.7 5.8-11.6 10.6-10.1 18.3l4-7.4c2.9 3 6 5.9 9.6 8.2 1.3-3 3.2-5.7 4.8-8.5l-2.2-1.9c-2.6.3-5.2.2-7.9.3 2.1-3 3.9-7.4 8.5-7 8.9-1.5 19.4 2.3 23.4 10.8 3 7.8 1 16.5 1.4 24.6 7.8-.4 17.3-3 20.3-11.1-.2-5.3-4-9.8-5-15l4.5 6.2c.5-3 1-6.1 3.1-8.6 2.8-3.9 5.8-9.3 11.2-9.5 9.2.6 18.7 1.5 27.4 4.7 7.6 7.1 6.5 18.1 9.6 27.2a35 35 0 0 0 10.8 9.3c2.8 2 5.9-.3 8.6-1.3-1.3-6.3-1.3-12.8-2-19.1-2.6-8.8-11.8-12.7-18.9-17.3-8-5.2-17.6-7-26.4-10.5 15.5-.9 28 9.8 40.6 17.2a36 36 0 0 0 6.4-26.4c-2.5-4.6-7.4-7.2-11-11 8.9 2 12.8 11.8 22.1 12.7 2.8-3.1 5.2-7.1 9.4-8.2 8.4-.9 16.7 1.2 24.3 4.6 6.6 3 14.4 4 20 9.1 3.3 2.5 4.8 6.5 6.9 10 4.9 0 9.9-.5 14.8.4 7 1.8 12.4 6.8 18.3 10.6 8.6 6.2 19 9 27.5 15.5 13.7 9.5 28 18.5 39.2 31 2 2 3.4 5.3 6.3 6.3 13 1.5 26.2 1 39.2 1 22.5-.3 45 2.2 67.5.6v6.7l-8 .4.4 10.2 7.6.6v2.6c-2.6 3.2-5 6.6-6.7 10.4a94 94 0 0 0 6.7-3.6v105c-1.2-.6-2.1-.4-2.8.6 0 1.8 2.3.8 2.8 0v68.4c-3.5-5.4-4-12-5.4-18.2a91 91 0 0 0-3.4-1l-6 7 .5-6.9c-3.6-1.5-7-3.5-10.9-4.3-3.7.5-7.2 2.1-10.8 3.2l4 6.8 5-1.1-2.6-6c2.3 1.3 4.5 2.9 6.8 4.3-4.8 3.2-10 6-13.3 11-1 3.3-.3 11 5 9.7 6.6-.6 7.7-8 9.3-13.2 2.5 4.5 5.2 8.9 6.6 13.8l-7.6 1.6a56.7 56.7 0 0 1-8.4 17.3c5.7-.2 11.6-1.1 16.4-4.3-3-3.4-4.5-7.6-2.7-12 5.6 2.1 11.6 2.3 17.5 2v9.6l-9 .8c2 5.1 4.6 10.2 9 13.8v8.8c-2.7-3.3-6.1-7.2-10.8-6.7-3.8 1.8-7 4.8-10.1 7.6l10.8 1.6a36.7 36.7 0 0 1-6.6 10.7c-4 3.8-2.8 10-5.7 14.5a54.7 54.7 0 0 1-9.1-12.4l7-3.5c-.7-2.8-1.3-5.7-1.6-8.5-7.3-1.5-12-7.1-16.5-12.4l.9-6.8c-7.3 12.2.2 26.3 1 39a148.7 148.7 0 0 1-9-38.9c-1.8-8.7-5.3-17-6-25.8 3 8.3 4.6 17.4 9.6 25 3.4-16.4 2.4-33.3 2.5-50-.4-27.4-2.5-55.3-11.3-81.6A221.3 221.3 0 0 0 546 130c-21-25.3-44-51-75-64 2.3 6.1 6.5 11.5 7.6 17.9-.6 6-.6 12 3.1 17a83.7 83.7 0 0 0-5.7-3.3 234 234 0 0 1-11.3 14.4c2.3.5 4.5 1.5 6.9 2.2-.9 3-3.2 6.8-.5 9.6 4.6 5.6 8.9 12 15.5 15.4 3.5 9 9.1 18 18.4 21.7-.7 2.6-2.3 5.4-1 8 3 6.2 7 11.8 10.4 17.7 2 3.5 5 6.3 6 10.3 1.5 6 3.4 11.8 6.2 17.3 3.4-2.6 7-5 10.5-7.3-3.1 3.8-7.5 6.8-9.5 11.4a16 16 0 0 0 9.6 14.4 18 18 0 0 0-2 14.2c2.1 12.1 4.8 24.2 7.7 36.2.6 2.8 2.8 4.9 4.8 6.8-.8 2.1-2.4 4.1-2 6.5.4 8.2 2.4 16.2 3.8 24.3 3.8-2.5 7.2-5.6 10.3-8.9-.5 2.6-1.5 5.1-1.5 7.8 1 4.6 4.4 8.3 8 11.1 8.2 7 17.7 13.5 22.6 23.4 3.5 7.6-4.4 14-8.7 19.2 2.5 6.3 6.6 12.3 6.3 19.4-.9 3-2.8 5.4-4.2 8a64.1 64.1 0 0 0 37 23c7 1.2 14.2-1 20.7-3.9v97.3c-3.2-2-3.2 3.4 0 1.6v47.9c-13-15.2-23.3-32.3-33.6-49.2-.3 10-.3 20.9 5.8 29.5 8.1 11.5 17.8 22 27.8 31.8v2.3c-16.7 6.5-33 15.5-44.7 29.3-6.6 7-7.8 17-11.8 25.3-3 2.9-7.8 3-11.5 4.4h-90.3c-.5-5.4.2-10.8 2.3-15.8 2.5 2.2 4.8 4.8 7.2 7.2 7.8-15.4 3.8-33.5 9.6-49.5-9.4.5-17.8 5.3-24.6 11.4-4 3.5-3.3 9.5-4.7 14.2l4.6-.3a166 166 0 0 1-8.1 7.3c1.2-9 3.6-17.8 4.8-26.9-2.3 6-4.5 12.2-6.3 18.4l-2-4.9c-5.8 2.2-14.1 2-16.8 8.5-2.2 4.9-3.5 10.5-8 14-5.2 2.9-11.4 3.6-16.7 6.5-3.1 2.4-4.2 6.5-6 9.9h-2a71.4 71.4 0 0 0 2.8-17.3c-2.2-1.5-4.7-2.5-7-3.8 10.2-1.9 23.2-.5 30-10 6.7-7.3 8.1-17.4 8.8-26.9l-18 .5c15.6-4.7 32.9-7.4 45.5-18.4 4.7-5.1 9.8-11.4 9.6-18.7-3.7-3.9-10.7-2-15.3-4.2 6.8-1.9 13.8-3 20.4-5.5a55.2 55.2 0 0 0 25.6-30.2c3-8.2 6.1-16.7 6.3-25.5l-3.8-.1c-4.9 7.7-9.5 16.2-17.1 21.6 3.7-6.8 9-13 10.7-20.8-.6-3.4-1.4-6.8-2.4-10.1a35.6 35.6 0 0 0 4.5-21.1l-2.3-.4c-6.2 10-14.9 18-22.2 27a95.7 95.7 0 0 1-30.9 20.4c.7 4 1.6 8 2.5 12 9.7.3 19.3.3 29-1a133 133 0 0 1-19.8 6.5c-9.3 2.6-16.6 9.4-24 15.1 2.4-5.3 5.5-10.3 6.9-16 0-4.6-1-9-1.7-13.5-7.4.8-15.2 1.3-22.2 4.2-5.7 2.9-5.2 10.4-4.3 15.7 2 9.2 4 19 10.6 26.1 3.1-5.4 6.2-10.9 10-15.9-1.4 6.4-4.4 12.3-7.3 18 5-1.5 10.1-3 15.3-4a112 112 0 0 0-26.8 19.3c1.3-5.8 4.2-11 5.5-16.9-.6-6-6.6-9.3-10.4-13.4a23.4 23.4 0 0 0-14.4 20.8c.1 9.5 1.2 19.1 4 28.3 4.6-5.9 8.5-12.3 13.8-17.5A84.3 84.3 0 0 0 416 587c5.3-1 10.4-2.9 15.6-3.9-10 5.2-20.5 9.2-30.7 14a29.6 29.6 0 0 0 4.9-33.5c-8.5 2.4-17.1 6.8-21.5 14.7a45.3 45.3 0 0 0 3.3 35.2c2.4-3.4 4.7-6.8 7.4-10-2.7 6.3-5.8 12.4-7.6 19l16.9-1.9a76.6 76.6 0 0 0-28.1 19.4h-1.9a177 177 0 0 0 5-20.3c0-5.2-1.3-10.3-2.6-15.2-6 4.3-12.6 8.2-16.5 14.7-4.6 6-4.8 13.6-5.7 20.8h-2.7c-.4-2-3.1-2-3.6 0H205.5c9.8-9 19.7-18 29.2-27.4-7-.3-14.3.4-21.3-1-3.1-.7-4-4.2-5.2-6.7-2.2-6.9-5.3-13.5-6.3-20.8 9.2-13.7 28-10 41-16.7-6.5-12.2-22-12-33.6-17-7.8-2.2-16.1-7.4-24.2-3.4a13.2 13.2 0 0 0-10.4 13.4c.7 6.4 6.5 10 10.4 14.5-7.3.5-13.6-3.2-20-6-1 7.1.2 14.4 3.1 21 2.4 4.7 7.6 6.8 12 9.2l.5 1.7c-8.4 1-17.2 2.1-25.2-1 5.7.5 11.5.6 17.2.4a59.6 59.6 0 0 1-13.1-29.7c-1.8-12.4-3.8-24.9-4.8-37.4h1.7c.9 8 .7 17 5.3 24 3.4 6.6 9.4 11 15 15.5-3-7-8-13.6-7.5-21.7-1.3-10.5 1.3-22.1-4.3-31.8l-5.2-10.9-2.6-.2-1.7 6.2c-.8-4.6-.4-9.4-2.2-13.7-3.8-6.2-8.6-11.7-13.5-17.1-3.8 5.1-7.2 10.6-10.8 15.9 1-4.6 2.6-9.1 3.4-13.8.7-4.3-2-8-3.8-11.6-4 9-8 18.6-15.2 25.6-4.3 4.8-11 5.7-16.7 8 4.6 1.9 10.2 3.8 14.8 1 2.6-2.5 4.5-5.6 6.8-8.4a72.4 72.4 0 0 0-1.2 44l2.2-4.6c1.9 14.5 2.9 30.7 13 42.1 5.6 7 13.3 11.5 20.2 17-3.2-.4-6-1.7-8.7-3.4-.5 8.6-.8 17.3-1.7 26a36 36 0 0 0-11-11.5c3.5-.3 6.9-.9 10.3-1.5-.7-4.6.4-9.6-1.6-14-2.4-3-6.2-4.5-9.4-6.4-1.6-9.4-8.3-17-10.4-26.2-4.3 7.1-7.5 16-4.3 24-1.4 1.3-3 2.5-4.2 4-.4 7 .9 14.1-.2 21-1.4 9.8-3.2 20 .3 29.4h-77A387.5 387.5 0 0 0 69 583.8c5-9 10.5-18.3 13.1-28.4-7 5.9-13.2 12.8-20 19C69.3 563.8 78 554.3 84 543c3.3-6.2 8.2-11.7 10.5-18.4 1.5-4.6 2.9-9.1 4.2-13.7l-6-5.4c2.6-.6 5.5-.8 8-2a18 18 0 0 0 3.2-8.4c-2.5-10.4-6.2-20.4-9.2-30.7h-2C86.5 488.3 75.5 511 59.8 530c-11.3 15.5-24 30-38.7 42.3-3.6 3.5-9.1 3.7-12.7 7-2 4.5-4.9 8.3-8.5 11.6v-6c3 .2 2.5-4.3 0-1.6v-20.5c2-4.5 4.9-8.8 5.6-13.8.5-4.4-3-7.7-5.6-10.7v-.2l4.7-.5c0-4.5.1-9-.1-13.4L0 526.9v-23c3.2-2.3 6-5.1 6.7-9.1 2-.6 4-1.7 6-2.1a88.3 88.3 0 0 1-12.7-14v-4c2.6 4.2 5.5 8 8.7 11.7l-.8-5.2c2.8 3 5.3 7.4 10 7.3 9.1.2 18.2-.7 27.3 0 1.5 1.8 2.7 5.1 5.7 4.8 5-.8 10-1.6 15-2l-4.2 4c.9 1.4 1.8 2.8 2.6 4.4 2.7-.9 5.6-1.1 8.2-2.3 1-3 1-6.2 1.5-9.3l-1.8-.6c4.2-1 9.7-.9 11.9-5.4 7.2-15.7 10.5-32.9 11.2-50-.7-3.6-3.3-6.4-5.2-9.3l.5 5.3a98.8 98.8 0 0 1-7.2-4l6.3-1.8c-1.4-6.5-3-13-5.2-19.3-.6-3.6-2.7-6.9-6.3-8.2-.9 12.6-2.7 25.4-.8 38 1 6.4 6.5 10.5 8.4 16.4-.9 3.2-3 5.9-4.6 8.7-3.7-1.1-7.4-2.2-11.4-2.2-1.3 1.3-2.4 2.9-3.6 4.3l-4.6 1.6 1.5-5.6H56l-.4 11-6-.2 2.6-8.5c-4.1.2-8.3.3-12.4-.2-2.2-1.5-4-3.5-6.2-5a33 33 0 0 0-3.6 3.2c-1.2-3-2.5-6-4-9 4 1 7.8 1.8 11.7 2 5.6.6 10.2 4 15 6.4l.8-3.3 8.9 2.9c-1.7-7-10.7-5.6-15.3-9.5.7-4.2 4.7-6.6 7-9.8-5-.5-10 .2-15 .3.3-3.4.8-6.8 1.3-10.1.4 2.3.7 4.6 1.4 6.9 2.6-.2 5.1-1.2 7.4-2.4-3-2-6.4-5.9-10.2-3.8-5 2.5-9.2 6.2-14 9.2 3.4 0 6.6.6 9.7 1.8-4 .5-8.6 0-11.8 3a29.6 29.6 0 0 0-8.5 15.6l-1.2-1.2-1.4 5c5.9-3.1 12.8-2 18 2-3.3.8-6.5 2-9.8 3l4.2 4c-7 2.2-13 6.4-18.5 11 .1-7.3-.6-15 2.7-21.9 2.8-6 5.7-12 10-17.2 7-9.2 17-16 22.5-26.3A244.2 244.2 0 0 0 55 383.4c-9 4.1-16.4 11-24.7 16.3 4.5-6.2 10.2-11.4 14.7-17.6 4.3-6.3 8-12.9 11.8-19.4 5.8-9.5 7-20.8 10-31.4l-3.3-2.5c-.5 2-.5 4.1-1.9 5.7-9.5 11.2-23.6 15.8-35.7 23.2-8.2 4.6-17.2 7.5-25.9 10.8v-3c2-1.2 4.3-2.1 6.5-3.1l-6.5-.6v-1.3c2 0 4-.1 6-.4l.6-4.6-6.6-.8v-4.6c10.5 1.2 20.9-.7 31.2-2.4 1.2-3.3 4-5.6 6.2-8.2l-2.7.8-1.7-3.6c-4.7.5-9.3 1-14 1.7-.6 3.4-1 6.9-2.1 10.1-1-3-1.8-6.2-2.7-9.3-4.7 0-9.5-.5-14.2 0v-2.4c3.6-3 5-7.6 4.8-12.2-1.6.7-3.3 1.4-4.8 2.3v-15.6c26.7-3.1 54-10 75.4-27.1-3.1-1-6.3-1.8-9.4-2.6C53.4 289 41.6 299 26.9 302c-9 2.1-18.3 3.8-26.9 7.5v-12.2l1-.3v-4.8l-1-.2v-4.5c5.7-.2 11.5.5 17 2.2l-1.4-9.2-15.6.4v-11c3.6.5 7.8.3 10.2-3 0-5.5-6.3-6.3-10.2-4.1v-4c3.7-1.6 7.6-.6 11 1.2L7 255l6.5-5.5c-3.4-1.4-7-2.7-10.5-3.8l-3 8.2v-88.4c2.6 1.5 5.3 2.8 8 4-.4-3-.8-6-1.4-9l-6.6-.8v-12l3-5.5 5.9 3-1.3-9.7c-2.6 1.7-5.1 3.4-7.6 5.3v-7.3l3.4 3c-2-11 3.3-22 1.2-33 3.7.4 7.3 1 11 1.8 4.2 6 5.1 13.5 7.5 20.2 2.3-2 4.6-3.9 6.8-6-.6-4-3.5-7.1-4.7-10.8-.2-3.6 1.2-7 1.8-10.4l6.9 1.1c-1.6-2-3-4.5-5.6-5.4-2.3-.3-4.7.3-7 .6L24 99a19 19 0 0 1-9-6.9c5-.6 10.2-1.3 14.5-4.3-7-1.3-11-7-12.6-13.2l-4.5.5 7.5-7.3 1 7c-.2 6.5 7.5 8.5 10.1 13.6 1.8 3.8 4.1 7.3 7.1 10.2a37.8 37.8 0 0 1 13.5-15c1-3.2 2-6.5 3.2-9.6h3.2c6.2 7.4 6.3 17.5 11.3 25.6l4.5-2.3a127 127 0 0 0-3 16.9c4 3.2 8.1 6.4 11.8 10 5 4.8 11.7 6.7 18 8.9-1.7-5.2-2-10.7.8-15.6-4.1-.6-8.2-.8-12.3-1l1.6-4-4.1-.6c1.3-1.6 2.4-3.4 4-4.7 2.5-.6 5-.4 7.4-.4l.5 7.6 7.3 2.6 2-4.5a160 160 0 0 1-4.9-.6l-1.4-3.5 6 1.5-.1-2.4-9-1.9c1.1-4 1.9-8.1 2-12.3-1.9 0-3.8 0-5.8.2 3.9-1.8 7.7-3.7 11.1-6.2v10.2l-3-1 .6 8.4c7-2.7 13-7.5 17.6-13.4 3 3 5.6 6.3 8.8 9 3.6-4.4 5.1-11.6 11.2-13.3 5.6 1.2 5.7 8.7 8.2 13-4.6 2.3-9.5 4.2-13.3 7.6a45.8 45.8 0 0 0-8.6 28.6c.2 5.2 7.2 6 8.3 10.7-1.3 3.8-4.5 6.6-6.3 10.1-.3 2 0 4.2 0 6.2l-5-1.5c.5 1 .8 2.1 1.2 3.2l-6.5.5c1.5-2 3-3.9 4.2-6-1.7 1.4-3.6 2.7-5 4.4-.3 3.7 1.1 7.2 1.9 10.7l-3.3-1.4c1 3.7 2.6 7.2 3.6 10.8.7-4.3 2-8.7 5-11.9-.8 4.4-2.6 8.6-3.4 13 1.1 5 3.4 9.8 3.4 15 1.8-5.1 4.3-10 6.8-14.8v4.8l2.4-3.6c-2.8-2-5.6-4.5-4.6-8.8 2.3 2.3 4.4 4.8 6.4 7.3 1.8-6.5-2.1-12.1-4.5-17.8 3 3 5.7 6.3 8.4 9.6l3.7-6-4.2 2-2.7-3.3 2-9.6 5 7.4c2-1.2 4.2-2.3 6.3-3.4l-2.8-3.3c4.2-.2 7-3 8.3-6.7-2.8 1-5.4 2.6-8 4a49.8 49.8 0 0 1-5.2-4c4.6-1.8 9-3.7 13.6-5.4-6-.9-12 .9-16.2 5.2-2.2-4.1-4.9-9.3-1.4-13.5l2.2 9.3 2.3-.3.2-3.2c2.6 0 5.3.2 7.9-.4 3.5-1.6 2.5-6.8 3.7-9.6h3.6l-3.9 12c5-.4 5.5-5 5.8-8.7l2.9 2.7c.7-3.2 3.2-5.5 5.6-7.5-.9 2.5-2 4.8-3 7.3 2.8-1.5 5.2-3.5 7.3-5.6-1.5-2.1-3.1-4.2-4.8-6.2l-1 3.6-2.3.3-.6-7-2 .3.8 3-3-.4-.2-3.7c6.8-1 11.7 4.2 15.5 9.1.4-1.8.7-3.6 1.3-5.3a26.8 26.8 0 0 1-13.7-9.3c-5.2-6.5-14-6.4-21.5-8.2-3.8-1-3.2 5-3.9 7.3l3.6-2.8c-.3 4.4.1 8.8.5 13.2a42.4 42.4 0 0 0-6.6-11.6c1 3.9 1.1 8 2 12l-3.7-5.6c-.4 5.7-.6 11.4.2 17.2-1.5-2.1-3.8-4-3.5-6.9.4-7 2.7-13.6 5-20.2 1.2-3 2.4-6.7 6-7.8 4.1-1 8.8-.3 12.5 1.8 7.5 3.6 11.6 11.3 18.5 15.6 8 1.4 19.4-8.3 14.8-16.8l5 2.2-3.8 7.8c2-1.3 4-2.4 6.4-3l-1.9-3 7.5 2c-4.2-4-9.2-7-13.6-10.8A117 117 0 0 0 185 118l-2-1.3c-.9-4-.1-8.4-3-11.6-3.5-4.1-9.3-4.3-14.2-5.7l6.6-.2c-3-6.8-3.7-14.5-1.4-21.7.5 5.7-.5 11.7 1.4 17.2 3.4 4.4 8.2 7.6 12.3 11.3l-2.4-6.7 4.1 2.7 3-4.5c-3 .4-6.2 1.6-9.3 1.2-2.4-1.7-3.3-4.8-5-7 3.6 1.6 7.3 3 11 4.2.1-2.7-.6-5.6 0-8.3 2-2.4 4.4-4.7 5.8-7.7l-4.8 3.3c-4.3-1.7-8.9-.9-13.3.2 1.5-2.6 3-5.3 4.3-8 2.5 3 5.8 4.8 9.8 5.4v-4.5l-7.4.5c.8-3 1.5-6.3 3.4-8.8 4.2-3.5 10.3-2.9 15.3-2.2 7.8 2 13 9.6 13.9 17.3-2.8-1.9-4.8-4.7-6.8-7.3l1.6 6.6-4.8-3.6a282 282 0 0 1 2-6.8l-3.7 3.8c-.9-1.6-1.6-3.4-3-4.8-4.5-2.2-9.6-.8-14.3.1 2.3 0 4.7-.3 7-.6l.3 6.2c2.2.5 5.3.3 6.2 2.8.7 3.5 0 7.1.2 10.7-2.8 1.7-6.5 3.8-6.8 7.4-.2 2-1.2 5.2 1.1 6.4 3 1.8 5.6 4.3 7.7 7.1 7-4.5 15.4-6.1 22.5-10.6A96.2 96.2 0 0 0 217 97l-.6 5-3.1-.2-1-3.4c2.7-1.8 5.3-3.7 7.5-6l-6.7 3.9a275 275 0 0 1 2-10.3c4 2.8 8.7 3.7 13.4 2.4l-4-1 3-8.4c-2.2 3.2-4.5 6.4-7 9.5v-6l3.7-.3c-.5-6-2.5-12-.8-18.1-4.3-1.7-8.3-5-13.1-4.5-8.6.7-17.2 2.9-25.9 2 8.6-2.4 17.5-3.3 26.4-4.1 2.4-4.6 4.3-10.1 9.3-12.5 9.6-5 21.4-3.1 31-8 10.5-12.5 27.7-14.4 43-14.9 4.2-1.5 7.2-5.5 11.9-6.1m66.4 11.3c-5 9.7-9.1 20.9-6 32 6.5 1.5 13.2 2.2 19.4 4.9 6.3 2.6 10.4 9 17.5 10.3l6.4-7c-1.4 2.9-2.9 5.7-4.4 8.4l4.7 2 5-6c-.3 2.7-.7 5.3-.9 8 10 5.9 20.3 11.3 29.5 18.6 4.2 2.7 8 8 13.8 6 10.2-.8 16.7-9.2 20.4-17.7.5-2.8-1.9-5.3-2.8-7.8a57.5 57.5 0 0 0-35.4-30.5c-7.2-2-12.5 3.4-17.2 7.8l.5-3.5-4.2 3.5c1.1-5.3 3.6-10.3 3-15.9-6.7-8.3-18.5-9-27.7-13.3-6.6-2-15.8-5.3-21.6.2m-14.1 12.4c.6 3.8 1.3 7.5 1.3 11.3l3-2c-1.3-3.1-3-6.1-4.3-9.3m-2.3 4.6c-.4 3.4-.4 6.8-.5 10.2l-4 1.4c2.7 1.2 5.3 2.7 8 3.8-.9-5.2-2-10.4-3.5-15.4M245 49.1c-1.4.4-.7 2.7.8 2.2 1.5-.4.6-2.7-.8-2.2m57.4.2c-1.1.8.1 2.8 1.4 2 1.2-.8-.1-2.9-1.4-2m17.8 1.2c-.9 1.3 1.2 2.6 2 1.4.8-1.3-1.2-2.5-2-1.4m-83 .8-2.8 2c6.1-1.8 14.6-.4 16.1 6.8-2.2-1-4.3-2-6.5-3.2l1 7.6 2.7-3.4 2.7 6.6c.2-2.2.6-4.4.4-6.7l2.8-2.2a94 94 0 0 1-5.3-6.2h4l-2.2-1.2c-4.3 1.2-8.7.6-13-.1m76-.4c-1.9 1 .1 3.5 1.7 2.4 2-1 0-3.6-1.6-2.4M253 55.2l2.4 2.9 1.1-5.5-3.5 2.6m58.4 1c1.5.6 3 1.3 4.5 1.7 1.8-1 3.3-2.3 4.8-3.7-3.2.5-6.3 1.2-9.3 2M259 54.4c-1.5 2.6-3 5.1-4.3 7.8 2.7-1.8 5.9-4.2 4.3-7.8m43.2.8c-1.3 1 .3 3.2 1.6 2.2s-.3-3.3-1.6-2.2m-8.2 3v2.5l4 1.4-1-6.5-3 2.5m-34.9 2.4 1.4 5.5 2.5-3-3.9-2.5M363 63c-6 1.8-8.2 9.1-7.2 14.8 2.2-3 3.4-6.6 5.4-9.6 5.2-4.5 12.5-2.5 18.3-.6a43 43 0 0 1 19.9 22.6c1.4 9.5-1.3 19.3.3 28.8 3.5 2.1 6.6 6 11 5.9 4.6-3.6 4.5-10.1 7.4-14.7 4.4-1.6 10-1.4 13.4 2.3a63.2 63.2 0 0 1 16.7 43.4c.6 3.7-.2 8.9 3.4 11.4 2.3 1.1 4.7 1.8 7.1 2.5 1.4-4.6 3-9 4.6-13.6l7-.3c-4.4 1.2-8.3 3.9-8 9 2.1.4 4.6 0 6.5 1.3 2.2 3.5 1.6 7.9 1.8 11.8.6 7.3.4 16.1 7 21l-1.3 10c-2.4-8-4-16.6-9-23.4-4.6-5-11.2-7.4-17.4-10 3.4 16 12.1 30.5 14.2 46.7-4-7.8-6-16.3-9-24.6-5.6-12.3-10.5-25.5-20.2-35.4-8.8 8.3-8 21.2-10.3 32.2-1-18.7.4-39-9.2-56-5.3-5-11.3-9.2-16-14.9-5-5.3-9-12.6-16.5-14.5-8.4-.7-17 .8-24.8 4l1.8-3.6c-5.8 1-11 3.9-16 6.6 3.4-3.5 7-6.6 10.6-10-10-2.3-20.3-2.4-30.5-2-4.6.4-9.8.4-13.6 3.3a119.6 119.6 0 0 0-22.3 20.7 262.6 262.6 0 0 0-34.9 64.1c-4.4 12-9.5 23.6-12.8 36-1 14-5 28.2-3.5 42.4 5.8 1.5 11.7 2.8 17.5 4l2.8-5c.7 3.2-.1 7.2 2.7 9.4 3 1.6 6.4 2.8 7.9 6.1-3.6-.7-7-2.3-10.5-3.5l-1 10.9c-1-4-1.6-8-2.2-12.1-5.7-1-11.4-1.9-17.2-2.6 1 13.2 5.3 26 11.8 37.4 3 5.2 7.4 9.2 10.6 14.2-9.4-4.8-13.8-14.7-20.2-22.5A63.3 63.3 0 0 1 229 288H226a72.9 72.9 0 0 0-8.9 35c-.3 6.2 3 11.6 5.1 17.3-15.1-7.1-25.6-20.8-35.6-33.7-8.3 11.2-12 25-14.3 38.6.1 6.9 1.5 13.7 1.3 20.6-5.7-13-3-27.4-.6-40.8 4-20 7-40 9.7-60.1.9-15 .7-30.2 6-44.4 0 10.2-3.2 20-3.4 30.3-1.4 11.5 1 22.8 2.7 34.1 3.4-2.1 6.8-4.2 10.7-5.3-1.4 4.5-5.6 6.7-9.8 8a70.4 70.4 0 0 0 29.2 48.6c-7-18.4-1.8-38.5 0-57.5-6.5 1.2-13 3-19.7 4 6.4-4.8 15-4.2 22.2-7.6-6.6.5-12.9 2.8-19.4 3.5 5.3-3.8 12.1-3.9 18-6.5 3.8-8.6 3.6-18.6 7.7-27.2 5-10.3 10.1-20.5 15.4-30.6 7.8-20.5 15.1-41.4 27-60 8.2-14.3 14.4-29.8 24.6-42.8h3.6c-1.9-1.4-3.5-3.8-6.1-3.3-9.6 1-19.5.8-28.9 3.3-20.7 11.2-35.6 30.3-49.7 48.8 2.6-9.5 10-16.7 13.7-25.7 1.5-3 4-5.5 6-8.2l3.4.4-1.7-2.5 3-.8c-3.2-3-7.6-4-11.8-2.8a99 99 0 0 0-27.3 11.4l-2.3-3.5-.9 6c-2.3-1.6-4.3-3.5-6.7-5 1 2.3 1.9 4.6 2.7 7l-4.5-5c-1 1.6-2.2 3.3-4 4.2-12.1 7.6-19.5 20.3-29.4 30.2-17 19.2-28 42.7-38 66a387.3 387.3 0 0 0-28.5 97.8l-3.1-3c-5.2 16.8-11.4 33.4-13.7 50.9-2.8 19.5-3.4 40.4 4.8 58.8-.5-12.7-2.5-25.5-.2-38.1 1.1-10.3 4-20.3 6.8-30.3 3.6-11.9 1.1-24.9 5.3-36.6-1.7 23.8-3.2 48 1.7 71.4a84.8 84.8 0 0 0 18.5 40.4v-3.8c5.3 6.4 10.3 13 15.4 19.5a70.7 70.7 0 0 0 47.2 23.2c-5.6-6.4-11.8-12.6-14.7-20.8L138 417a71.1 71.1 0 0 1-4.9-20.4c7.7 11 13.3 23.8 24 32.4 4.3 3.8 10 5.3 15.4 6.7l-.1-4c3.4 1.6 6.8 3.3 10.2 5.2-4.5.6-9 .8-13.4 1 2 9.5 5 19 11.2 26.6 19.5 24.3 47.3 39.4 72.9 56.2 7.3 4.2 14.4 9.6 22.7 11.8 23.6-.8 47.1-4.7 70.4-9 18.5-3.3 36.4-9.9 52.1-20.2a101 101 0 0 0-21.3-7.7l-.2-2.3c17 .2 31.2-11.1 40.3-24.6-6.7-.3-13.6.8-19.8-2 8.1-2.7 15.1-8 23.1-11-3.5 5.6-10.2 8-15.9 10.7 9.1 1 17.9-1.9 25.7-6.1-4.2 3.4-8.9 6.4-12.1 11a68 68 0 0 1-33.8 24.6 100 100 0 0 0 68.6-3.7c8.1-3.3 13.5-10.8 21.5-14.2-4.8 7-13.6 9.9-19.3 16 13-.8 23.7-9.3 33.2-17.5 5.9-5.5 9-13 13.6-19.4 3-4.8 6.8-9 8.7-14.4 3.7-10.2 7-20.6 9.7-31.1 1-3.7-3.7-5.2-5.5-7.7-5-4-7-10.4-9.6-16.1 2-4.6 4.8-8.9 6.2-13.7-4.2-6-11.5-11.1-11.4-19 3.3-7.6 10.4-13 16.5-18.4 4-3.7 11.6-6.9 11.2-13.6-2-5.2-7.2-8.1-10.4-12.5-1.4-4-1.4-8.5-2.6-12.7-1.5-4.2-4.8-7.7-6-12 .1-4.8 2.7-9.5 1.6-14.3-3.6-10-13.6-16-17-26-.1-5.7 2.2-11.4 0-17-2.1-7-9.3-10.6-15.9-12.4l-1.5-6.4 3.3 1.8c.8-2.6 1.8-5.1 2.7-7.7 5.6.2 12.2 1.9 14.4 7.6 2.2 8.9 1.3 18.3-.7 27.2-.8 4.7-.8 10.2 3 13.6 2.3 3.6 6.8 2.6 10.3 2.5l-5.5-4.5 3.7.7-.6-5.7c5.5 4.8 6.2 12.5 6.8 19.3.6 7.5-2.1 14.8-2.2 22.2 1.9 3.3 5.4 5.5 6.4 9.3.7 4.2.4 8.4.7 12.6a47.8 47.8 0 0 0 18.9 12.8c1-8.8-.4-18-6.4-25 3.4-4.2.8-9.2-.6-13.7l-8.1 3.3c3.1-4.3 8.3-8.6 6.3-14.6-.8-6.6-1.5-13.5-4.5-19.5-2.7-5.2-8.8-6.8-13.3-9.8l8 .7 2.4-2.2c-2.3-9-5-17.8-8.6-26.3-3-6.7-9.2-11.1-14.8-15.5 1.6-6.4 1-13.3-1.1-19.5-3-6.9-10-11.1-13.6-17.6-4.3 1.6-8.4-1-12.2-2.8l1.4-2c3.4 1.2 7 2.2 10.7 2.1-3-5.8-6.8-11.6-12.1-15.7-4-.3-6.5 4-9.7 5.8 2.1-5.1 7.8-10.7 4.3-16.4a60.7 60.7 0 0 0-29.3-24.8c-6.8-3.2-14.4-2.4-21.6-1.7 4.6-2 9.6-3 14.3-4.6-4.1-3.6-11.3-11-16.1-5a212 212 0 0 0-16.5-22.9A37.5 37.5 0 0 0 363 63m-109.4 1c1.8 2.6 3.6 5.1 5.5 7.5l-2-7.4h-3.5m-28 1c-1.1 1.3 1.1 2.9 2 1.6 1.2-1.3-1.1-2.9-2-1.6m67.2.4c.7 2.5 1.9 4.8 3.4 7-.6-2.6-1.7-5-3.4-7m-62.7 1.8c-1.6 0-1.7 2.7 0 2.6 1.6.1 1.7-2.7 0-2.6m134.9.6.1 2.5a168 168 0 0 0 5.3-2.1l-5.4-.4m-117.4 9.5c2.9-2.4 5.6-5.1 8-8-4.9-.9-7 4.2-8 8m127-8.4c2 1.5 4.3 2.5 6.8 3.2a35.4 35.4 0 0 0-6.9-3.2m-147.9 1.4c-1.1 1 .6 3.2 1.8 2.2 1-1-.6-3.2-1.8-2.2m4.6 1.5c-1 .7-.7 2.6.6 2.8 1.9 0 1-3.5-.6-2.8m24.2 0c1.7 2.6 3.6 5 5.5 7.4v-7.6l-1 3-4.5-2.8m64.1.4c-.9 1.1 1 2.6 2 1.4.9-1.1-1-2.6-2-1.4M293 75c1.2.9 2.3 2 3.6 2.9l-1.6-5.2a19 19 0 0 1-2 2.3m39.3.8c-1.3.5-.8 2.9.6 2.4 1.3-.5.8-2.9-.6-2.4m-97.8.8c-1 1.3 1.2 2.9 2.2 1.8 1-1.3-1.2-2.9-2.2-1.8m63.8-.4c-.6 1.6 0 2.1 1.6 1.6.6-1.6 0-2.1-1.6-1.6m22.6 0c-.5 1.4 2 1.9 2.4.6.4-1.4-2-1.9-2.4-.6m66.4 0c-.6 1.6 0 2.1 1.6 1.6.6-1.6 0-2.1-1.6-1.6m-130.7 2.5-.1 5 2.5 1.4-.4-5-2-1.4m26.6.4c-1.5.4-.7 2.7.8 2.2 1.5-.4.6-2.7-.8-2.2m10.2.2c-1.3 1 .3 3.2 1.6 2.2s-.3-3.3-1.6-2.2m25.5 0c-.7 1.3 1.7 2.5 2.5 1.3.8-1.4-1.6-2.6-2.5-1.4m71.3.3c-1.3 1 .3 3.3 1.6 2.2 1.3-1-.3-3.2-1.6-2.2m-162 1.6v.8l1.9 1.3 2-1.3v-.8l-2-1.3-2 1.3m10.4-.6c-1.3.8 0 3.5 1.5 2.7 1.3-.9.2-3.6-1.5-2.7m98.9 0c-1.2 1 .3 2.9 1.4 2 1.2-1-.3-2.9-1.4-2M280.4 88c.7-2.3.2-4.7-.4-6.9-.8 2.3-.5 4.7.4 6.9m3.8-5.7c-1 .4-1.4 2.4 0 2.5 1.9.3 2-3.4 0-2.5m17.2 0c-1.3 1.3.8 3.5 2 2.1 1.4-1.2-.8-3.3-2-2M241 83v2h4v-2h-4m30.1.5c-1.3 0-2.6 1.7-1.7 2.8 1.5 1 3.7-2.2 1.7-2.8m-40 1.3c-1.2.8-.3 3.4 1.2 2.5 1.3-.7.3-3.2-1.1-2.5m21.1-.2c-1 1.2 1 3 2 1.8 1.2-1.2-1-3-2-1.8m-23.3 11c4-1.9 6.3-5.8 7.3-9.8-2.8 3-5.2 6.3-7.3 9.8m11.4-6.7c3.4 1.3 6.7-.5 9.3-2.7-3.2.6-6.3 1.6-9.3 2.7m54.7-1.9-2.2 3.8c2.4-.6 4.9-1 7.3-1.4-1.6-.9-3.3-1.7-5-2.4m47 .1c-1.6.3-1.4 3.1.4 2.4 1.5-.3 1.3-3-.5-2.4m-91 1c-1.7.4-1.2 3.4.7 2.7 1.6-.5 1.1-3.5-.7-2.7m94.4.4-.6 3.7 4.2-4.4-3.6.7m43.8-.2c-1.3 1 .3 3.2 1.6 2.2s-.3-3.3-1.6-2.2m5.4.1c-1 1.2.4 3.6 2 2.9 1-1.1-.6-3.6-2-2.9m-115 1c-.6 1.8 3 3.3 3.7 1.4-.3-1.4-2.5-2.2-3.7-1.3m-40.4.7-2.1 4 6 .2-3.9-4.2m-12.2 1c-1.6 0-1.7 2.8 0 2.7 1.6.1 1.7-2.7 0-2.6M245 91v2h4v-2h-4m113 .3c-1.3 0-1.6 2.4 0 2.4 1.3 0 1.6-2.4 0-2.4m-91.3 5.1c2.9-.1 5-1.7 6-4.4a72.5 72.5 0 0 0-6 4.4m-2.6-3.5-.8 1.2c.9 3.1 4.2-1.7.8-1.1m63.5.3c-1 1.2 1 3 2 2 1.1-1.1-.8-3-2-2m-69.8 1c-.5 1.7 3.2 2.8 3.5 1-.5-1.3-2.5-2-3.4-1m-10 4c-.4 1.7 3.3 2.3 3.5.4-.4-1.3-2.6-1.5-3.5-.5m-212.1 2.1 1.3 2.5h4.6l1.4-3.2-7.3.7m22.3-1c-1.6 0-1.7 2.7 0 2.6 1.6.1 1.7-2.7 0-2.6m175.2 3.6c3.4-1.2 6.6-2.7 9.9-4.1-3.8 0-7.4 1.2-9.9 4m10.4 0c4 .2 8 .2 12.1.1l.4-2.4a213 213 0 0 1-12.5 2.3m-197.6.3-.2 2.9h5v-5.3c-1.7.6-3.3 1.5-4.8 2.4m180.4-.7a11 11 0 0 0 7 1.9l-4.6-3.3-2.4 1.4m30.7 6.2 8.5-5 .1-3c-3 2.4-6.2 4.9-8.6 8m-226.4-5.8c-1 4.4-2.5 9.2-.7 13.5 4.6-1.4 4-7.5 5.3-11l-4.6-2.5m22.8.5c-1 1.2 1 3 2 2 1.1-1.1-.8-3-2-2m185-.1c-.7 1.1 1.3 2.4 2.1 1.3.9-1.3-1.2-2.6-2-1.3m5.8 3.3c-2.3 1.7 0 4.4.2 6.6l3.6-.2c-1.1-1.8-2.4-3.5-3.4-5.3 2.9 0 5.7.7 8.2 2.2l-.6-4.2c-2.6-.6-6-1.7-8 .9m-21-1.2c-1.1 1.2.8 3.4 2.1 2.2 1.3-1.2-.7-3.4-2-2.2m-171.4.9c-.6 1.6 0 2.1 1.6 1.6.6-1.6 0-2.1-1.6-1.6m411 0c-1.4-.6-2.5 1.6-1 2 1.4.7 2.4-1.6 1-2m-246.4 1.4c1.3 1.3 2.6 2.5 4 3.6l1.3-2.5-5.3-1.1m19.2-.6v2h4v-2h-4m-180 .8-2 5.4 4-1.4v-2.6l-2-1.4m159.2 1.5c-1.6.4-.6 2.9 1 2.4 1.6-.4.5-3-1-2.4m-71 .3-.1 2.2 7.2-.2-7.2-2m85.3 1.6c2.7.5 5.4 1 8.1 1.3l1 3.4 4.8-1.3c-3.6-4-8.9-4.6-14-3.4m-17.2 0c-1.3-.6-2.4 1.6-.8 2 1.3.7 2.3-1.6.8-2m-57.8 1.5c-1 1.1.9 3 2 2 1-1.2-.8-3-2-2m74 .3c-1.1.6-1.1 2.4 0 3 1.7.3 1.7-3.3 0-3m-26.4 5.6c2.1 1.6 4.4 2.9 7 3.4-.5-1.4-1-2.8-1.7-4.2l5.6 1.4-1.6-2.2 5.1-4c-5 1.5-9.8 3.3-14.4 5.6m22.4-5.4c-1.2 1.4 1.4 3.1 2.4 1.6 1.1-1.4-1.4-3.1-2.4-1.6m-15.5 10.5c5.4-.3 12.5-2.6 10.6-10-3.5 3.3-6.9 6.9-10.6 10M247 115l-.8 1.2c.9 3.1 4.2-1.7.8-1.1m291.7 0c2.3 4 4.3 8.3 7.6 11.6 5.9 6.1 10.2 13.5 15 20.5 4.7-1 9.5-2.2 13.9-4.4-1.2-1.9-3.1-2.9-4.9-4 3-2.5 4.4-6 4.7-9.8 2.3-.5 4.5-1 6.8-1.3l-.8-5.9c2.2-.7 4.4-1.5 6.7-1.6 4 3 7.7 6.7 10 11.2 2.3 4.2.9 9.2.3 13.7l4.6-.6c.7 4.5 4.3 7.3 6.8 10.7.8 5 2 9.8 4.1 14.3 2.6-1 5.3-1.2 7.9-1.8-.5-4-2.4-7.4-5-10.3 5.7-5.6 11.8-12.4 10.9-21.1-1.2-6.4-1.3-12.8-1.5-19.3-6 0-13.9-2.6-18 3-2.9 3.4-7.3 2.9-11.3 2.4 2.6-2 5-4.2 7.6-6.1-7-.2-14-1.4-21-.8-5.4 2-9.9 6-15.7 6.8 1.8-2.4 4-4.5 5.9-6.8-5.5.3-11 0-16.5-.2l-2.2 9.1c-3.6-1.4-8.4-2.6-7.6-8l-8.3-1.3m-433.6 7.5-3.7.1c2.5 1.6 5 3 7.7 4.1.2-3 .3-6-.3-8.9-2.3.4-2.6 3-3.8 4.7m84.6 5.8c4.9-1.6 10-4 13-8.3-4.8 1.9-9 5-13 8.3m226.5-6.3c-1 .6-1 2.4 0 3 1.8.3 1.8-3.3 0-3m-385 1.3c-1.7 0-1.8 2.7-.1 2.6 1.6.1 1.7-2.7 0-2.6m171.9.7v3h3v-3h-3m-3.7 1.5c-1.7.5-1.4 3.6.6 3.1 1.7-.4 1.3-3.6-.6-3.1m-17.6.7c-.8 1.1 1.2 2.4 2 1.3.9-1.3-1.2-2.6-2-1.3m237.6.8c-1.8.7-.1 3 1.3 1.9 1.7-.8 0-3-1.3-2m-239 1.3c-1.2.4-2.6 1.8-2 3 1.8 1.2 4.8-3.2 2-3m-60 14.7 4.8-1.2-1.4-6.4c-1 2.6-2.3 5-3.4 7.6m-55.1-2.3a111 111 0 0 0 8.4 3.5c-1.1-1.9-.4-5.7-3.2-6.6-2.2-1.7-3.5 2.1-5.2 3.1m-.7 9.1 4.4.3c.9-1.6 1.7-3.3 2.4-5l-6.8 4.7m499.5-.1.2 3 2.6 2.2c3.8-2.4 8-4 11.9-6.1a75.6 75.6 0 0 0-3.6-3.4c-3.2 2.5-7 4.2-11.1 4.3m-556.7 1L16 152v-4.5c-3.4-.8-6.4.5-8.7 3m19 6.2 10.9.3a59.6 59.6 0 0 1-5.2-6.8c-2.6 1.5-6 2.6-5.8 6.5m99.4 1.5c-1.1 1 .6 3.2 1.8 2 1.2-1-.6-3-1.8-2m13.3 6.3c-1.4 2.2.5 4.1 1.5 6l2.9-1.9-4.4-4.1m472.4 6.9a20 20 0 0 0 8.2 7.1c-1-3.7-3.7-8-8.3-7.1M6.5 173.9c1.6 3 3.1 5.8 4.9 8.6v-5l4.2-4.7c-3.1-.3-6.2 0-9 1.1m624.8 4.7c1 3.2 3 5.9 5.5 8.1 2.6-5.4-2.3-6.7-5.5-8.1m-17.4 1.2v6.3l2.8-.2c.7-1.6 1.1-3.2 1.4-4.9-1.4-.5-2.8-1-4.2-1.2m-34.6 5 3.9 1.4c-.4-2-1-4-1.5-5.8-.7 1.5-1.5 3-2.4 4.3m-566.5-2.1c2.4 3 4.8 6 7.4 8.8 0-2 .5-4.2-.5-6.1-2-1.4-4.5-2-6.9-2.7m38.8 38.2c2.5 4 5 7.7 7.6 11.6A89.8 89.8 0 0 1 79 212c8.7-6.3 18.8-10 28.4-15-1.7-4.4-3.6-8.7-5.6-13-19.3 8-38.3 19.2-50 37M37 196.2c-1.4 0-1.7 2.4-.2 2.4 1.4 0 1.7-2.4.2-2.4m463-.1c-.5 1.6.1 2.2 1.7 1.6.5-1.6 0-2.2-1.6-1.6m134 0c-.6 1.6 0 2.2 1.6 1.6.5-1.6 0-2.2-1.6-1.6m-2 12.3c-1.4.8-.4 3.8 1.2 2.6 1.4-.8.5-3.7-1.2-2.6m-4 25.7c-.6 1.6 0 2.2 1.6 1.6.5-1.6 0-2.2-1.6-1.6m-24.7 2c-1 1.2 1.2 2.8 2.2 1.5 1-1.3-1.2-2.9-2.2-1.6m2.1 3.9c2.8.2 5.4.2 8.2.2l1.3-4.6c-3.3 1.3-6.4 2.9-9.5 4.4m28.6-2.7c-1.5 1 .1 3.5 1.6 2.4 1.5-1-.2-3.5-1.6-2.4M32.6 250.4c1.5 3.5 4 6.7 8.2 4.8-2.3-2.2-5-4-8.2-4.8m-9.4 2.6c-3.4 3.2-7.7 5.2-11.6 7.6l2 1.1c3.7-3.8 9.1-3.2 14-3.7l-4.4-5m574 1.8 1 6.4 2.6-5a105 105 0 0 0-3.6-1.4m-565.8 6.4c-1.4 1.4.9 3.7 2.2 2.2 1.5-1.3-.9-3.6-2.2-2.1M13.7 263l3.7 6.9a81 81 0 0 0 5.6-2c-.6-1.7-1.3-3.4-2.1-5h-7.2m24 4.1-6.9.3c-.2 3.4-.6 6.8.6 10 1-2.9 3-5.2 5.7-6.8 1 2.4 2.2 4.8 3.4 7.1-.2-3.3-.8-6.5-1.2-9.7l3.4 1.9 3.8-2.2c-.8-1.4-.6-4.6-2.5-4.6-3.8-1.6-4.7 2-6.3 4m16.5-3.8c-1.5 1 .2 3.5 1.6 2.4 1.5-1-.2-3.6-1.6-2.4m-44.4 8.3-1.1 2.7c2.7.2 5.4.6 8.2 1 0-1.3.2-2.4.3-3.6-2.5.2-5 .2-7.4 0m589.9-.2-.3 13.8 2-5 2.7 3.3c-.7-4.3-2.3-8.4-4.4-12M237 272.8v3c5.9.8 11.7 1.6 17.6 1.7a53.9 53.9 0 0 0-17.5-4.8m-189 2.5c-1.4 0-1.7 2.4-.2 2.4 1.4 0 1.7-2.4.2-2.4m579.9 6.5c0 1.6 0 3.1.2 4.7 1.4-.8 2.8-1.4 4.2-2l-4.4-2.7m-596.2 1.3 5.6 4.4.3-4.5h-6m-9.5.4.6 7.6c3.8-.9 7.5-1.9 11.3-2.3-2.6-1.3-5-2.9-7-5l-.6 3.2a41 41 0 0 1-4.3-3.5m608.5 7.5 3.1 1.2.8-4.8-3.9 3.6M36.1 289c-1.3-.5-2.4 1.7-.9 2.2 1.4.6 2.4-1.7 1-2.2m561 4.3 6-1.1-1.4-3.7-4.5 4.8m-593.8 5c-.9 4.3 4.7 4 7.6 3.5 4.6-.4 3.8-5.9 4.8-9.1-4.6.4-11.6-.4-12.4 5.6m18.5-4.8v4.6l6.9-2.6c-1.6-2.5-4.3-2.3-6.9-2m577.8 6.9c1.7.4 3.5.7 5.4.9l1-4.4-3.4 1.7a45 45 0 0 1-.6-5.3c-1 2.3-1.8 4.7-2.4 7m-517-5.2c-1.2 1.5 1.5 3.4 2.5 1.9 1.3-1.6-1.4-3.3-2.5-1.9m-5.1 3 .8 2.2-2.8 2.3c1.6.6 3.3 1.1 5 1.5l.1-8.3-3.1 2.2m11.5-1.3c-1.3.4-.8 2.8.6 2.4 1.3-.5.8-2.9-.6-2.4m-20 5.1c-2.1.3-1.5 3.1.5 2.2 2.2-.3 1.6-3.1-.5-2.2m-15.5 8.3c4.2-.3 7.8-2.3 10.9-5-3.8 1.2-7.5 3-11 5m26.6-4.1a70 70 0 0 0 1 3.7l2.8.4-2.3-5.2-1.5 1.1m-30 5.4c-1.4 1 .2 3.2 1.5 2.2s-.3-3.2-1.6-2.2m30.2 0c-1.2 1 .3 2.9 1.4 2 1.2-1-.3-2.9-1.4-2m538.4 0c-.9 1-.5 2.9.6 3.6 1.8-.2 1.2-4.1-.6-3.6m-579 3.1 4.8.9c-8.9-2.1-17.2 2.2-25.8 3.4 7 .5 14 1.4 21 3l1.5-2.4c3.3-1 5.1-4 4.2-7.9l-5.6 3m558.7-1.4-.5 12.1 3.4-1.5c-.6-3.6-2.3-7-2.9-10.6m-546.9 3.1c-1.2 2.5 4.2 2 3.5-.1-.9-1-2.6-.8-3.5.1m28.6 1.5c-1.3.8-.4 3.4 1.1 2.5 1.3-.7.3-3.2-1.1-2.5m-74.5 5 4.1.1 2.3-3.2-6.4 3.1m42.5-2.6c-.6 1.6 0 2.2 1.6 1.6.6-1.6 0-2.2-1.6-1.6M7.6 333.3c6.6 0 13.2.9 19.8.1.3-3.4-.5-6.7-1.4-10-4.3 1-9 1.3-12.9 3.6l1.8-3.8c-5.5.3-5.7 6.5-7.3 10.1m42.6-7.1c-.6 1.6 0 2.2 1.6 1.6.6-1.6 0-2.2-1.6-1.6m-3.8 0v6.5c1.3-2 1.3-4.4 0-6.4M31.8 328l.4 3.8L35 333l.9-1.8-4-3.2m26.3.4c-1.9.5-1 3.5.8 3.3 1.8-.4.9-3.5-.8-3.3m-3.9 4.8c-1 1.3 1.3 2.8 2.2 1.4 1-1.4-1.3-2.8-2.2-1.4m18 .5c-.8 1-.6 3 .7 3.7 1.9 0 1.2-5.1-.7-3.7m-24.8 6.7c2.8-.7 5.2-2.5 6.9-4.7a19 19 0 0 0-6.9 4.7m-7 4.3 2.6.7c-.1-3 .2-5.9.4-8.8l-3 8m520.1-8c1.3 11.3 9.5 19.5 15.3 28.6 2-2.8 4.6-5.5 5-9-4.9-8.1-12.7-14.1-20.3-19.5M514 351c-4.9 3.9-2.3 9.6 0 13.9l3 .2c5.5-8.9 11.1-17.7 17.2-26.3-8.8-2.2-15 6.6-20.2 12.2M74.2 339.5c-1.8 0-1.8 3 0 3 1.7 0 1.7-3 0-3m-29 1.7c-.6 1.6 0 2.2 1.6 1.6.6-1.6 0-2.2-1.6-1.6m23 5.6c0-2.2.3-4.4.2-6.7-1.6 2-1.3 4.4-.3 6.7m-44 6.4c-1.6-.5-2.9 2.2-1 2.8 1.6.5 2.8-2.3 1-2.8M11.6 355l4.6 1.4-4 1-.3 3.7 9.7-4.6a15.3 15.3 0 0 0-10-1.5m57.6 2.7c-1.4 0-1.9 2.7-.3 2.8 1.5 0 2-2.8.3-2.8m455.6 14 3.5 1.4c1.4-5 3.3-9.8 3.4-15-3.2 4-5 8.9-6.9 13.6m90.4.6c-1.5 0-1.5 2.4 0 2.4s1.5-2.5 0-2.4m-47.3 5.8a39 39 0 0 1 7.1 14.4c-4.4-5-8-10.9-13-15.4-1.3 7-1 14.4 1 21.3 4.6-1.9 10.3-2.6 13.7-6.8.3-5.1-2.2-10-4-14.6l-4.8 1m-518.7 2.2c-.6 1.6 0 2.2 1.6 1.6.6-1.6 0-2.2-1.6-1.6m468 11.7a89 89 0 0 0 15.8 8.6c.7-5 1-10.2 1-15.4-4.4 1.5-6.4 5.7-8.6 9.5l.4-10.3a31.9 31.9 0 0 0-4.2-3.9 18 18 0 0 0-4.3 11.5M52 406.3c-1.4 0-1.7 2.4-.2 2.4 1.4 0 1.7-2.4.2-2.4m-8.6 18.5c1.6.8 3.3 1.5 5 2.1l.7 4.2c3 .1 6 .2 9 .1l-1.8-5.3 10.7-3.2c-.6-5.2-1.5-10.5-2.2-15.7-6.6 6.6-15.3 10.7-21.4 17.8M586.7 410c2.6 4.2 6.8 7.1 11.6 8.4a79.2 79.2 0 0 0-11.6-8.4M45 411l-1.3 2 1.3 2h.8l1.3-2-1.3-2h-.8m532.5 3c-3 8-6.2 16.3-5.2 25a52.8 52.8 0 0 0 12.3 31.4c-1.3-16.2 1.2-33-3.1-48.8-1.1-2.5-1.3-6.2-4-7.5m-538.1 7a28 28 0 0 0 5.9-4.4 24.3 24.3 0 0 0-6 4.4m21.6 6v4.1c3 .8 6 1.4 9.2 1.9-1-2.9-2.4-5.6-3.8-8.3-1.8.6-3.7 1.4-5.4 2.3m559.1-1.5c-1.8 3-3.5 5.9-5 9 2-1.2 4-2.3 5.8-4l-.8-5m-561.4 9.7 4.8 5.3-.6 1.6c-3.2.6-6.6.9-9.5 2.4 6 4.1 12.2-.6 18.5-1 3.6 1.8 6.4 4.9 9.6 7.3-4-6.1-9.6-11-14.7-16.2.9 2.4 2 4.7 3 7L64 444l2.3-7.4-7.6-1.4m533.9 19.9c4.6-2.6 8.8-6 13.4-8.7l-1-2.7a32.4 32.4 0 0 0-12.4 11.4m26-6.4 5.7.2-1.6-3.5-4.1 3.3M69 447l-.8 1.2c.9 3.1 4.2-1.7.8-1.2m3 2.3c-.4 1.6.1 2.2 1.7 1.6.5-1.6 0-2.2-1.6-1.6m-3.7 2.1c-1 1.7 1.9 3 2.8 1.5 1-1.7-1.9-3-2.8-1.5m482.8 33.3c-1.3 24.5 4.9 48.5 9.9 72.3 4.3 22 16.3 41.1 24.8 61.6 2.5-2.4 4.6-5.2 6.4-8.1 3.8-6 9.9-10.1 14.8-15.2a182 182 0 0 1-23.2-41.5c9.2 13 15.3 28 25.2 40.6l16.3-8.9c-3.3-6.7-8.6-12.1-12.3-18.6-4.7-8.3-9.5-16.6-12.3-25.8-3-8.8-7-17.5-13.6-24.3-6.7-6.8-12-14.7-18.5-21.5-1.7 18.1 7.6 34.3 12 51.2-6.1-9.5-9.6-20.4-14.6-30.5-5.1-10.4-8.3-21.7-15-31.3M75.1 498.3c-1.4 0-1.7 2.4-.2 2.4 1.4 0 1.7-2.4.2-2.4m-60.2 1.2 1.6 5c2.8-1 5.5-2.2 8-3.8l-9.7-1.2m45.6.8c-1.3 3.4-3 6.8-3 10.6 1 3.6 5.6 4.2 8.5 6 2.3-2.8 4.5-5.5 6.6-8.5-2.4-1-4.9-1.7-7.5-2a7 7 0 0 0-4.6-6.1m-46.9 4.5c-1 6.2-4.2 13.7 1.4 18.6 1.6-2.3 3.4-4.3 5.3-6.2 6.7-1.5 13.5-.2 20.2-.7 3.6 1 6-1.6 8.5-3.4-6.4-7.4-17-3.6-25.5-5.1l-.6-3.3c-3 .7-6.2.7-9.3.1m-9.4.5c-1.4 0-1.7 2.4-.2 2.4 1.4 0 1.7-2.4.2-2.4m625.2 7c-1.8.4-1.2 3.5.8 2.8 1.8-.4 1-3.7-.8-2.9m-608 7.2L21 524l4.7-.4a249 249 0 0 0-4.3-4.3m219.5 8a63.5 63.5 0 0 0 15.1 30.3l4.3-.3c1.7 5.7 6.6 9.1 11.4 12.1l-1.5-4.3 1.1-1c2.8 6.7 9.5 10.4 16.2 12.2-.6-8.1-.6-17.9-7.5-23.3-3.3-3.2-8-3-12-1.6-2.8-5.1-5.5-10.6-11.3-12.9-4.4-2.1-6-7-8.6-10.7-2.4-.5-4.8-.3-7.2-.4m-233.6 1c-1.8 0-1.8 3 0 3 1.7 0 1.7-3 0-3M20 531v3h5.3l-1.4-3a27 27 0 0 0-3.9 0m25.8 10.6c4.4-1.4 6.7-5.5 7.5-9.8-2.6 3.1-5.2 6.3-7.5 9.8m317.4-8.4c-.6 1.6 0 2.1 1.6 1.6.6-1.6 0-2.2-1.6-1.6m-29.8 13.2 1.7 2.6c3.5-1.7 7-3.5 10.9-3.8l-2.5-2.3-10.1 3.5M17.5 557.6c4.6.1 9.1.9 13.6 1.6 4.5-1.9 6.7-6.8 10-10.1-5 .4-10 .8-15 1l-1.5-6.3c-3.2 4.1-6 8.7-7 13.8m290.9 5.9c-4 4.6-8.9 9.7-8.2 16.2 13.5-1.1 21.2-13 27-23.9-7 .3-14.1 2.3-18.8 7.7m170 11.8c-.9 1.1 1 2.6 2 1.4.9-1.1-1-2.6-2-1.4M1.1 577.5c-1.2.8.2 3 1.4 2 1.2-.9-.2-2.9-1.4-2m499.6-.4c-.8 1.2 1.2 2.5 2 1.4.9-1.3-1.2-2.6-2-1.4m-231.5 20.1c-2.9 3.3-8 2.9-11 6-1.3 2-1.9 4.5-2.6 6.8l2.7-.3c.9-3 2.1-6.1 5.5-7 5.6-2.1 9-8.2 15-9.4 4.1 1.8 4.5 7 4.9 10.7a138 138 0 0 1-10.1 4.3l-2-5.4a61 61 0 0 0-4 1.1c2.6 3 5.1 7.4 9.7 5.9l.8 2.2c-1.9.2-3.8.6-5.7.5-3-2.8-5.7-6.3-10.3-6.4-.7 1.9-2.4 3.6-2.4 5.6 2 5.4 5.2 10.1 7.5 15.3-.8 0-2.2-.3-3-.4-1.1-2.9-2.4-5.8-3.7-8.7l-1.6 1.3c2 4.1 3.6 8.7 6.6 12.2 1.8.2 3.6.1 5.3 0l-1.8-3.4c6-3.2 13.1-5.2 17.3-10.9 2-3.6-2.1-6.8-4.4-9.1l7.3-.2-3.5-3.3c-1.1-4.2.1-10.4-4.7-12.7-5.1-2.7-8.6 2.3-11.8 5.3m70 5.3c-1 1 .4 2.9 1.5 2 1.2-1-.3-2.9-1.4-2m-51.3 19c2.5-2.4 4-5.5 4.3-8.8-1.6 2.8-3.2 5.7-4.3 8.8m65-3.2c-1.3 0-1.6 2.4 0 2.4 1.3 0 1.6-2.4 0-2.4Z" />
        <path
            id="thumbnail-fg1"
            d="m329 15.8 5.6.6-5.4 2.2-.2-2.8ZM295.8 34.1l.8 2.1 10.7 2.2L292 41l3.8-6.9ZM264.4 42.3c4.6.3 9 1.5 13 3.5-4.5-.2-9-1.3-13-3.5ZM284.5 47.3a6 6 0 0 1 4.8-4.8 46 46 0 0 1-4.8 4.8ZM278.3 47c1.9.6 3.7 1.3 5.6 1.8-.6 2.6-1 5.2-1.3 7.8-.8-3.5-3-6.4-4.3-9.6ZM228.8 53.6c3 1.7 5.8 3.6 8.6 5.4l-2.4 2.3c-2.1-2.5-4.3-5-6.2-7.7ZM236.7 56.2c.9-1.5 3.9-.2 2.8 1.5-1 1.5-3.9.1-2.8-1.5ZM633.2 61.2c2 .6 4.1 1 6.2 1.5-2.5.2-5 .2-7.6.3l1.4-1.8ZM572.6 63.6c12-1.2 24.2-2.8 36 0-11.7 3-24-.8-36 0ZM13.2 62.5l6.4 5-6.5-.8v-4.2ZM540 63.6c12 .5 24 1 35.5 4-11.9.5-23.7-2.1-35.5-.9v-3ZM171.7 77.2c1-5 4.3-8.8 7.6-12.5-1 5-4.4 8.8-7.6 12.5ZM575.4 67.5c7.4-.4 14.8-.7 22.2 0-7.4.4-14.8.7-22.2 0ZM611 67.3c1-1 3-1 4 0 0 1.6-4 1.6-4 0ZM619 67.7c4.5-.4 9.1-.3 13.6.2-4.3 1.4-9.6 2.8-13.6-.2ZM9 80.9c.5-4.4 1.2-9 3.8-12.5-.4 4.3 0 9.4-3.8 12.5ZM106.8 74c2.7.7 4.8 2.6 5.9 5.2a13 13 0 0 1-6-5.3ZM22.5 74.7c2.6 1.1 5 2.6 7.2 4.3-3-.4-5.6-1.8-7.2-4.3ZM600 78h8v1h-8v-1ZM199.8 79l5.6 4.8-4.3.2c-.5-1.7-1-3.3-1.3-5ZM436 88c1.4-3.5 3.7-6.8 7.6-7.6-.8 3.9-4.1 6.2-7.6 7.6ZM14.2 82.3c1.4-1.1 3.1 1.4 1.6 2.4-1.4 1.1-3.1-1.4-1.6-2.4ZM99.3 82.6l2.9 5.4h-3.3l.4-5.4ZM210.3 83.8c1.8.3 1 4-.8 3.5-1-1-.4-3 .8-3.5ZM114.3 84.5c1.6-1.4 3.3 1.4 1.6 2.4-1.6 1.7-3.1-1.3-1.6-2.4ZM213.3 84.4c2.5-.8 1 4-1 2.9-.7-1 0-2.4 1-3ZM566.4 84.5c4.9-.9 6.2 7.3 1.5 8.5-4.9 1.2-10.4 3-15.1.3-3.1-1.7-1.8-6.1.5-8 4.3-.4 8.7-.9 13-.8ZM633 85.4c.7-2.3 6.7-1.2 4.6 1.3-3.1 7.2-12.2 9.7-19.3 8.1-3-2.3-2-6.6-2.4-9.9 5.7.7 11.5 2.7 17.1.5ZM0 85.5c3.4-2.3 3.2 2.5 0 2.4v-2.4ZM0 94c4.3-2.4 8.2-5.5 11.5-9.2l3 10.6c-3.2 1-6.3 1.6-9.4 2.4l2.6 4.6-7.7-1.7v-6.6m10 2.7a70 70 0 0 0-1.5-6.4c-1.4 2.4-.8 4.7 1.4 6.4ZM106.3 85.2c.9-1.4 3.3 0 2.2 1.4-.9 1.4-3.3 0-2.2-1.4ZM173.9 91.4c-1.1-3.8 1.8-5.4 4-7a70.7 70.7 0 0 1-4 7ZM201.6 88.2c2.3-1.3 4.7-2.4 7.1-3.2-1.8 2-4.4 3-7.1 3.2ZM524.1 88.2c4.4.2 9 0 13 2.4-4.3-.8-10.2 2-13-2.4ZM574 90.3c4.6-1 9.5-1.8 13.8.4-4.5 1.1-9.4 1.5-13.7-.4ZM640 92.8c-2.5.3-2.5-2.8 0-2.6v2.6ZM203.1 99c2.8-1.1 5.4-2.8 7.7-4.7-1.3 3.8-3.2 7.3-4.9 11l4-3.6-1.2 4.2c-2.4-.2-4.8-.6-7.1-.7l-2 3.1c-.4-3.5 1.8-6.5 3.5-9.4ZM15 95.7c1.2.4 2.2.9 3.2 1.5-.5 2.3-2.8 3.2-4.5 4.5.4-2 .8-4 1.4-6ZM92.3 96.3c1 0 2.9-.3 3.8-.4l-.4 3.8a16 16 0 0 0-3.4-3.4ZM483.1 102.1c5.4-1.7 12.8-6 17.3-.4 6.5 6.4 10 15.2 15.5 22.4 4 4.7 4.3 11 5.2 16.9-1.4 7.6 7.1 8.7 11 12.8 5.7 5.7 5.5 14.2 7.2 21.4 3.7 1.4 7.5 3.4 9.2 7.2 7.3 12.7 13.5 29 7 43.2.2-6.6.7-13 .4-19.6a72.4 72.4 0 0 0-12.3-27.5c-4.8 1.2-9.1 3.4-13.5 5.6 2.1-2.9 5-5.4 6.2-8.8 1.5-9-1.6-20-10.4-24.3-3.9-2.3-7.4 1.8-10.8 3.3 5.5-6.9 5-16.8 2.3-24.7-6-6.8-10.1-14.8-14.4-22.6-3-3.7-8.1-8.5-13-5-2.4 1-4.7 2-7 3.2l.1-3ZM530.2 101.1c2.6-.3 1 3.7-1 3-1.6-.6-.3-2.9 1-3ZM18.4 103.3l4.6-.4v9.3l-4.7-4.6c1.3 0 2.6.2 3.8.3a71 71 0 0 0-3.7-4.6ZM411.4 115.7c-2-3-.5-5.9 1.5-8.3-.4 2.8-.9 5.5-1.5 8.3ZM77.4 115c2.4.2 4.8.6 7.2 1.2l.5 6c-2.6-2.3-5.2-4.7-7.7-7.2ZM146.5 116.1c7.6-.8 13.6 4.2 18.8 9-4.6-2.2-9-5.1-14.2-5.6l1.8-1.1c-2.2-.6-4.3-1.3-6.4-2.3ZM147.7 124.7a62 62 0 0 1 8.5-1.5l-1.5 3.6-5.8 1.1-1.2-3.2ZM308.5 159.6c5.2-13 11.6-27 23.6-34.9a129.4 129.4 0 0 0-25.4 45c-3 9.4-2.8 19.5-5 29a69.1 69.1 0 0 1 6.8-39.1ZM334.6 139.2c1.1-5.4 4.9-9.6 9.3-12.7-2.9 4.3-5.8 8.8-9.3 12.7ZM136.7 136.2c.8-1.4 3.6-.3 2.6 1.3-.8 1.4-3.6.3-2.6-1.3ZM181.8 137.8l4.8-.8c-1.3 1-2.3 2.1-3.2 3.4l-1.6-2.6ZM170.7 149.3c2.3-4.4 6.5-7.2 10.7-9.6a55.8 55.8 0 0 1-10.7 9.6ZM130 157.8c2.4-2.3 4.9-4.6 7.1-7l1 9.4-2.5-5.5-1.9 5.7-.2-1.9-3.4-.7ZM323 169.4c.8-6.6 1.8-13.4 5.9-18.9-1.2 6.5-3.5 12.8-5.9 18.9ZM143.1 159.5c1.2-.9 2.6 1.1 1.4 2-1.2 1-2.6-1.2-1.4-2ZM143.3 164.7c1.3-1 2.4-2.1 3.3-3.4l.5 3.8-3.8-.4ZM121.5 167.3c1-1.2 2.9.3 2 1.4-1 1.2-2.9-.3-2-1.4ZM198.3 188.2c3.8-7.3 6.2-15.5 11.9-21.6-1.8 6.5-5.3 12.4-8.1 18.5-5.8 10.8-8 23-13 34.3.8-11 5.3-21.1 9.2-31.2ZM319 204c.3-11.2-.3-22.8 3.4-33.6-.9 17-3 34.2 1.2 51 2.7 10.3 5.7 20.8 10.8 30.3 7 11 15.5 21.8 27.4 27.8l-1 1.5c-2-.6-3.9-1.2-5.7-2.2a95.7 95.7 0 0 1-31.5-49.4c-2-8.4-5-16.7-4.6-25.4ZM129.1 173.4c2.4-.5 1.8 3.5-.3 3.1-1.6-.4-1-2.8.3-3.1ZM124 185.8a16 16 0 0 1 4-7.6c-.4 3-1.6 5.7-4 7.6ZM129 183.8l.2 6-3.1 1.1a295 295 0 0 1-2.5-3.7l3.4 1.7 2-5.1ZM478 197.9c.2-4.4 4-5.3 8.1-5.3-2.8 1.6-5.3 3.6-8.1 5.3Z" />
        <path
            id="thumbnail-fg2"
            d="M332.1 226.5a47.4 47.4 0 0 1 5.8-25 121 121 0 0 1-5.8 25ZM416 247.6c2.4-13.7 4.6-27.4 7.5-41a151 151 0 0 1-5.8 42.5l-1.7-1.5ZM303 207.7c3.7 7.8 5.3 16.5 9 24.3 4.3 9.2 9.3 18.3 16 26 5 5.5 11 10 16.1 15.4-15.5-7.8-25.7-22.5-32.7-38-4-8.8-7.9-17.8-8.4-27.7ZM549.8 228.3l3.8-1.5c.2 3.9-.7 7.6-1.8 11.2-.8-3.2-1.4-6.4-2-9.7ZM466.6 233.6c2.2 6.5 1.4 13.8 5 19.8 3.2 5.7 12.3 5 14.2 11.7-2.2 10.5-7.4 20.1-12.2 29.6 2.3 0 4.7-.2 7-.1-4.9 3.6-15.2 1.7-15.1 9.6 1.2 5.6 8 9.1 13.4 8.8 2.1-5.9 9-7 12.8-11.3 1.3-3 1.2-6.5 1.6-9.7-4.2.5-8.4 1.4-12.6 1.8 4.2-3.4 9.6-5.7 14.8-2.8.8 6.2-1.9 12-5.2 17l2 1.8 12-.6c-.8 6.8-2.7 13.9-8.2 18.3 2.1-5.2 4.6-10.2 6.2-15.6-8.6-1.4-17.3-1-25.5 1.8-4.7 1.2-8-2.6-11.8-4.4-.8-3.7-1.3-7.4-2.1-11-3.9.3-8.3-.4-11.6 2-2.6 4-3.5 10.8-10 9.8 2-1.6 4.2-3 6.4-4.4l-1-4.7c-4.5-1.2-9.2-.3-13.3 1.9.6 5.2 1 10.6 3.3 15.4a48.2 48.2 0 0 0 24 18c7.5.8 15.4.6 22.8-1.7 4.6-1.5 8.3-4.8 12.7-7a39.4 39.4 0 0 1-30 14.3c0 15.1-3 30.2-8.2 44.5.2-11 4.6-21.4 3.8-32.3-.2-4.6-.5-9.1-1-13.6-3.3-1.2-6.4-2.7-9.5-4.2l-.8 2.9c-4.9-5-11-9.3-14.2-15.7-5-9.7-16.2-13.4-23.6-20.9 7.7 2.8 13.7 8.5 20.7 12.6a32.2 32.2 0 0 0-8.5-14.1 31.5 31.5 0 0 1-8.9-21c3.6-6.3 8-12.2 11.9-18.3l1.2 2.2c-3.6 5.5-7.8 10.6-10.6 16.5-1.6 6.6 4.1 14.1 11 14.8 10 .7 20.2 2.8 30.2.3 7.1-2.2 14.8-5.4 18.4-12.6 1.8-3.2 1-7.1 2.6-10.4 1.3-2.8 3-5.4 3.4-8.4-4.3-2.6-9.3-3.9-13-7.4-4.5-4.3-10.6-5.7-16.5-7 .4-2.1.6-4.2.8-6.3-3.6 0-7.3 1.5-8.6 5-2.1 4.8-8 5.6-12.3 7.3 6.5-5.1 11.1-14.7 20.7-13.9 1.9 5.3 6.9 7.7 12 9.2.2-5.8-.4-11.7-.6-17.5ZM552.5 240.2c3.2 1.4 6.2 3.4 8.1 6.4a29.6 29.6 0 0 0-11.8-1.4l3.7-5ZM502.8 240.7l2.8 1.8-4.7 5.1a148 148 0 0 1 1.9-6.9ZM560.4 247.5c3.4 10.5 3.8 21.7 6.8 32.3l-2.7 1.3c-1.1-11.2-3.4-22.3-4-33.6ZM410.3 275.6c.6-5.6.7-12 4.6-16.5-.1 5.8-1.9 11.4-4.6 16.5Z" />
        <path
            id="thumbnail-fg3"
            d="M326.3 271.7c2.8 13.3-.1 27.1 3.7 40.3a56 56 0 0 0 26.7 40.3c6.5 1.1 13-2.3 19.4-3.2a59 59 0 0 0-.4-3.8l-1.9-.2c3.7-11.9 4.9-24.6 11.3-35.5 0 6-1.4 11.9-2 17.8 6.2-7.4 11.3-15.6 15.2-24.4-10.7-3.7-22-4-33-5.4 7-4.5 15.8-3.9 23.7-4.9.6-6-.1-12.2 2.4-17.7.5 6 1.2 12.4-1.2 18.1L401 297c3-7 5.1-14.6 8.8-21.4.4 8.8-4.3 18.8 1.3 26.6-.8 1-2.6 2.6-.7 3.4 8.5 5.9 18.3 10.3 25.2 18.3-9-4.9-16.3-12.8-26.5-15.3 1.5 19 6.3 37.7 14 55.2l8.3 3.4-1 2.5c2.8 3.1 5.8 6.2 8.4 9.5l2.8-16.7c2.9 9.6 1 21.2 8.3 29-1 6.1 3.5 11 6 16l-4 1.3-5.7 10.5.8-10.7c-5.3 1.2-10.5 2.6-15.6 4.5 2-6.7-1.5-13.2-5.7-18.3-3.5 8.8-7.4 18-14.3 24.6-5.6 3.8-11.5 8.2-18.4 9.3a66 66 0 0 1-28.7-12c-4.5-2.9-4.9-9-5.2-13.7-1.9-13.4 4-26 10.3-37.3l-7.2.9.5-4.6-13.5 1.4c1.7-2.3 3.8-4.3 5.7-6.4l-9.6-5.2.2 3.4c-5.2-1-10.4-1.9-15.4-3.4a50.4 50.4 0 0 1-12.3-24.2c6.6 8 11.8 17.7 21 23-12.5-24.2-14.4-52.2-12.5-79m51.1 24.9 11.3-.1c-3.5-2.6-7.6-1.5-11.3.1m10.8.9c4 1.3 7.8 2.8 11.8 3.9l-.2-3c-3.8-1-7.8-2.7-11.6-.9m-9.9 44c11.1.9 22 3.3 32.5 7l-10.2-22.5c-8 4.4-15.2 10-22.3 15.6m1 2.9c-.9 1.3-1.4 2.8-2 4.3 6 .6 12 .6 17.9 2 7.8 1.1 14.7 5 22 7.4-1.9-3-3.8-6.6-7.5-7.9-9.6-3.6-20-6.7-30.4-5.8m-14.1 18.8c-.6 1.6 0 2.2 1.6 1.6.6-1.6 0-2.2-1.6-1.6m3.6 0c-.5 1.4 2 1.9 2.4.6.4-1.4-2-2-2.4-.6m25.5 8.3c1 3.4 3.2 7.4 7 4.5-.5-3.5-4.2-3.9-7-4.5m-31.2 28 4.7.6 1-4c-2 1-3.8 2.2-5.7 3.3m11.6 3c-4.8-5.3-11.5 2-11.5 7.5 1.5 6.5 8.7 9 14 11.8 6.6 3 15.2 6.2 21.6 1.1 3.8-2.1 2.5-7 2.3-10.6l-5.7.6c.5-3.2.6-6.4 1-9.6-4 .2-8 .3-12 0l-2.8-6.9c-3 1.2-5.3 3.3-6.9 6m11.7-4.1 3.2 4.4.4-3.4-3.6-1m45.6 1c.7 2.6 1.8 5 3.1 7.2a13 13 0 0 0-3.1-7.1Z" />
        <path
            id="thumbnail-fg4"
            d="M344.3 272.8a36 36 0 0 1 8 4.5c-3.2-.3-6.4-1.4-8-4.5ZM440.2 273c2.4.5 5 1.2 7.4 1.6-1 1.6-1.7 3.4-3 4.8-2.4.8-5 0-7.4 0 .7-2.3 1.4-4.6 3-6.4m2 2.3c-1.5 0-1.5 2.4 0 2.4s1.5-2.5 0-2.4ZM7.3 282c4.4-.4-.6 3.8-2.4 1.7-.2-1.1 1.6-1.5 2.4-1.7ZM126 305.3c0-8.3 1.6-16.6 5.8-24-.5 8.3-3.4 16.2-5.8 24ZM311.5 308.5c-2-9-2.3-18.2-.2-27.1.8 9 .8 18 .2 27ZM558.5 284.9l5-3.2c-1.1 4.8-1 9.8-1.2 14.7-.9-4-2-7.9-3.8-11.5ZM148.4 284.5c1 7.9 0 16-2.8 23.4-1-8 1-15.8 2.8-23.4ZM257.3 297.5c3.5 5 4.6 11.3 7.7 16.6a70 70 0 0 0 20 21.8c12.7 10 29 12.2 44 16.5-13 1.6-25.2-3.3-37.3-7.2-6.3-2-10.9-7.2-16.8-10 1.2 2.5 2.6 5 4 7.5-5.3-.8-9.4-4.3-13.2-7.7l7.2 3a96.2 96.2 0 0 1-15.6-40.5ZM558.6 308l1.7-8.5c.4 2.8.6 5.7.8 8.5h-2.5ZM620.9 302.8h6.1c-1 2.3-2 4.7-3.7 6.6-1-2.1-1.7-4.4-2.4-6.6ZM628 307l7.6 1.8c-2.5.2-5 .8-7.5 1.4l-.1-3.3ZM125.2 314c1.8-.4 1.8 3.3 0 3-1-.6-1-2.4 0-3ZM449.5 313l2.3 7.8-9-.8 5.2-2.1 1.5-5ZM316.9 325.4c-2-2.9-3.5-6.3-2.8-9.8 1.2 3.2 2.3 6.4 2.8 9.8ZM452.5 323.7l7.7 9.4c-3.3-2-6.4-4.4-9.9-6.1l2.2-3.3ZM146.6 327.2c5.3 15.8 10.5 34.5 26.8 42.4l.8-3.6 2.3 3c1-1 1.9-2.2 2.7-3.5l-3.4-1.3c6.3-2.5 14.3-3.2 17.9-9.8 16.4 0 33.6-4.1 49.3 2.7 5 2.4 12 3.8 14.6 9.5l4.4 9.7a113.9 113.9 0 0 0-91.8 3.5c.8-2.8 2-5.4 2.8-8.2l-8.2-2.7c2.3 13 5.5 26 6.6 39.3-.1 7.8-.7 15.6-1 23.4-13.6-12.9-19.1-31.8-19.8-50 0-8.7.7-17.3 1-26-.5-9.6-4.3-18.7-5-28.4ZM123.4 332.7c1.7 15.6.9 31.6 4.4 47l-1.6 1.4a172.7 172.7 0 0 1-2.8-48.4ZM461.5 334.1c1-1.3 3.2.3 2.2 1.6s-3.2-.3-2.2-1.6ZM441.6 341.3c1.5 5.3 2 11 0 16.3v-16.4ZM215.5 345.9c8-1 16.7-3 24.5.3-8.1.7-16.4.8-24.5-.3Z" />
        <path
            id="thumbnail-fg5"
            d="M239.4 346.2c5.9 1.3 11.7 3.4 15.2 8.6-5.4-2.1-11.1-4.3-15.2-8.6ZM600 380.6c1.9 3.8 3.7 7.5 5.4 11.3h-3.2c-.8-3.8-1.7-7.5-2.2-11.3ZM630 389c.5-3.9 4.8-.6 7.1-.4v4c-2.8.4-7.4.5-7-3.5ZM616.4 388.6c4-.7 7.6 1 10 4a43 43 0 0 1-11.5 0 68 68 0 0 1 1.5-4ZM618.1 395.8c2.3.7 4.2 2.3 6.3 3.5l-7.6 3.2c.4 2.5.5 5 1.5 7.3 3 4 7.9 5.5 12.4 6.8a30 30 0 0 1-2.6-13.2c1-1 2-2.8 3.6-2.2 3.1 2.3 5.6 5.3 8.3 8v8.2c-5.6.4-11.6.5-17-1.5-7.8-2.7-12.1-10.5-16.7-16.9 3.9-1.2 7.8-2.4 11.8-3.2ZM637.3 399.2c.8-1.8 1.7-3.5 2.7-5.1v8.1l-2.7-3ZM78.8 409.2c-.3-3.8-.6-7.8 1.6-11 0 3.2-.2 6.5.1 9.7l-1.7 1.3ZM106.2 438c-4.2-10.3-9.9-20.9-9.3-32.4 2.8 11 6.8 21.5 9.3 32.4ZM7.7 425.2c2.7-4.9 5.7-10 10.8-12.6-2.6 4.9-6.5 9-10.8 12.6ZM82.7 414.6c1.6.2 3.2.2 4.9.2l-2 5.3c-1.9-1.2-2-3.6-3-5.5ZM77.7 421.4c.5-2.3 1.7-4.4 3.4-6-.9 2-2 4-3.4 6ZM435.9 436c3.7-5 5.7-11.2 10.2-15.6-1.6 7.6-6.6 13.8-10.4 20.3-3.4 5.7-8.3 10-13.7 13.7 4.6-6.1 9.7-12 13.9-18.5ZM23.6 441.3c1.3-1.2 3.3 1 2 2.2-1.3 1.2-3.2-1-2-2.2ZM85.7 441.2c1.2-1.3 3.3.9 2.1 2.1-1.2 1.2-3.3-.9-2.1-2.1ZM436 455.3a30 30 0 0 1 9.4-9.7c-1.6 4.5-5.6 7.2-9.4 9.7ZM32.2 457.6c1.4 1 2.8 2 4.1 3.2l-4.3.2.2-3.4ZM85.2 462.4c1.5-.4 2.3 2.3.6 2.6-1.5.3-2.3-2.3-.6-2.6ZM265.7 461.4c3.8 2.9 7.2 6.4 10.5 9.9-5-1.3-10.8-4-10.5-10ZM56.4 466.4c2.2-1.5 4.9-2 7.5-2v3.9a151 151 0 0 1-7.5-1.9ZM476.7 475.5a17 17 0 0 1 6.4-7 21.2 21.2 0 0 1-6.4 7ZM62.8 471.4c3-1.5 6.8-.6 8.9 2l.6 9.8c-6 0-12.3.7-18-1.7-3.2-1.4-2.8-6-4-8.6 4.3-.2 8.4-.8 12.5-1.5ZM299.5 476c4.2-2.2 8.5-4.4 13.2-5.3-2.1 5.6-8.2 5.3-13.2 5.2ZM120.4 533.5c-1.2-5.8.3-11.6 2.3-17-.4 5.7-1.1 11.4-2.3 17ZM0 528.1c.7 3 .7 5.9 0 8.8V528ZM36 601.4c8-8.7 15.4-18.1 24.5-25.8A75.9 75.9 0 0 1 36 601.4ZM146.6 611.6ZM396.1 600.4c1.2-1 2.5 1 1.3 1.8-1.1 1.1-2.5-1-1.3-1.8ZM118 607.3c1.3-1 3.7-1 5 0-.5 1.5-4.5 1.5-5 0ZM464.2 607.3c1.4-1.1 3 1.4 1.6 2.4-1.4 1.1-3.1-1.4-1.6-2.4ZM126.8 608.2c.5-1.3 2.9-.8 2.4.6-.5 1.3-2.8.8-2.4-.6ZM461.2 619.8c.7-2.8 1.7-5.5 2.8-8.2.1 3-1 5.9-2.8 8.2ZM467.7 614.8l1.4 2.3-2.4 7.6 8.6-1.6c-6 2.9-11.7 6.4-15.4 12 2.9-6.6 6.1-13.2 7.8-20.3ZM475.7 622.9c4.1-1.2 9.3-4.5 13.2-.8-4.4.4-8.8.7-13.2.8ZM0 629.5c4.4-3 8.6-6.5 13.4-8.8-3.4 5.1-8.7 8.4-13.4 12.1v-3.3ZM146.3 621.6c1.5 5.6 1.2 11.4.2 17-.2-5.7-.2-11.3-.2-17ZM141.5 623.4c.8 4.8 1.4 9.7 1.8 14.6h-2.5c.1-4.9.2-9.8.7-14.6ZM453 636.5c1.6-3 3.4-6 5.2-8.8-.6 3.5-2.4 6.6-5.1 8.8ZM640 635.8c-3.3 1.8-3.2-3.7 0-1.6v1.5ZM628.5 639c2.3-2 5.1-3.6 8.2-4.2a17.8 17.8 0 0 1-8.2 4.3Z" />
    </g>
</svg>